<?xml version="1.0" standalone="no"?>
<!DOCTYPE svg PUBLIC "-//W3C//DTD SVG 20010904//EN"
 "http://www.w3.org/TR/2001/REC-SVG-20010904/DTD/svg10.dtd">
<svg version="1.0" xmlns="http://www.w3.org/2000/svg"
 width="102.000000pt" height="388.000000pt" viewBox="0 0 102.000000 388.000000"
 preserveAspectRatio="xMidYMid meet">

<g transform="translate(0.000000,388.000000) scale(0.100000,-0.100000)"
fill="#000000" stroke="none">
<path d="M686 3815 c-18 -43 -20 -78 -6 -104 5 -10 7 -34 3 -54 l-5 -35 -45
24 c-34 18 -44 20 -39 8 3 -9 6 -24 6 -34 0 -28 48 -80 75 -80 25 0 40 -14 48
-45 3 -11 4 -2 3 21 -1 22 -10 51 -19 64 -20 29 -23 94 -4 88 6 -3 17 -20 24
-39 l12 -34 0 31 c1 17 8 37 16 44 8 7 13 15 11 19 -3 4 -1 13 4 21 9 15 10
12 9 -65 0 -16 -9 -40 -22 -54 l-22 -24 22 14 c39 23 56 95 34 137 -6 9 -13
35 -16 56 -5 28 -9 36 -15 26 -6 -9 -5 -17 2 -21 9 -6 8 -37 -3 -79 -2 -8 -10
-21 -17 -29 -15 -16 -18 -14 -48 43 -14 25 -14 35 -3 68 21 63 41 16 26 -62
-6 -31 -6 -32 4 -10 6 14 15 32 19 41 6 13 -17 79 -34 97 -3 2 -12 -13 -20
-33z m-43 -186 c25 -13 66 -59 67 -75 0 -6 -12 -9 -30 -6 -33 5 -70 44 -70 73
0 22 4 23 33 8z"/>
<path d="M786 3513 c-4 -9 -4 -14 1 -10 4 5 13 -7 20 -25 l13 -33 -6 35 c-8
43 -19 57 -28 33z"/>
<path d="M687 3468 c29 -33 53 -87 42 -94 -5 -3 -7 -15 -3 -27 4 -12 7 -33 6
-47 -2 -21 2 -18 24 18 14 23 29 40 34 37 16 -10 -9 -78 -39 -109 -42 -43 -39
-52 4 -13 36 32 60 92 49 121 -9 23 -19 20 -43 -10 l-21 -27 0 25 c0 17 11 34
35 52 19 15 35 32 35 38 0 7 -6 4 -13 -6 -8 -10 -25 -20 -39 -21 -21 -2 -28 2
-33 23 -7 30 -33 62 -48 62 -6 0 -1 -10 10 -22z"/>
<path d="M596 3458 c21 -69 40 -89 81 -87 10 0 4 5 -13 10 -36 10 -67 65 -45
79 10 5 8 9 -4 14 -25 9 -27 8 -19 -16z"/>
<path d="M669 3435 c17 -33 31 -51 31 -40 0 6 -10 21 -21 35 -13 17 -17 18
-10 5z"/>
<path d="M615 3327 c-13 -31 34 -108 64 -106 11 0 10 3 -5 9 -30 12 -70 100
-45 100 4 0 26 -12 47 -26 l39 -26 -25 25 c-32 32 -68 43 -75 24z"/>
<path d="M716 3257 c3 -10 9 -15 12 -12 3 3 0 11 -7 18 -10 9 -11 8 -5 -6z"/>
<path d="M771 3185 c-18 -28 -31 -41 -34 -33 -6 15 -11 -33 -8 -74 1 -18 -3
-28 -11 -28 -10 0 -10 -2 -1 -8 6 -4 13 -30 16 -57 l3 -50 2 57 c2 47 6 60 23
70 11 7 31 34 45 60 13 26 29 50 34 53 22 13 22 -5 2 -47 l-21 -43 24 28 c15
16 25 41 25 58 0 33 -6 36 -32 12 -17 -15 -18 -14 -18 15 0 44 -15 40 -49 -13z
m30 -45 c-6 -20 -23 -47 -37 -61 l-27 -24 7 40 c4 22 19 60 34 85 25 41 27 43
30 20 2 -13 -1 -40 -7 -60z"/>
<path d="M614 3186 c-12 -30 50 -136 79 -136 6 0 1 7 -12 16 -20 15 -61 91
-61 115 0 11 67 -37 87 -61 8 -9 12 -10 13 -3 0 6 -17 24 -37 40 -55 43 -62
46 -69 29z"/>
<path d="M161 3004 c-6 -15 -10 -29 -7 -31 2 -2 7 6 12 19 l7 23 9 -24 c11
-31 18 -24 11 12 -7 34 -16 34 -32 1z"/>
<path d="M825 3002 c-17 -15 -37 -36 -45 -47 -8 -11 8 0 35 24 28 25 52 46 54
48 2 2 0 3 -5 3 -5 -1 -23 -13 -39 -28z"/>
<path d="M610 3016 c0 -2 16 -13 35 -25 19 -11 44 -35 55 -53 22 -36 26 -33 9
6 -13 29 -99 91 -99 72z"/>
<path d="M851 2984 c0 -11 3 -14 6 -6 3 7 2 16 -1 19 -3 4 -6 -2 -5 -13z"/>
<path d="M630 2958 c0 -17 64 -78 81 -78 26 0 43 -68 30 -117 -7 -24 -7 -33 0
-26 5 5 12 32 15 59 5 40 2 54 -15 76 -12 15 -28 25 -35 22 -8 -3 -27 11 -45
33 -17 21 -31 34 -31 31z"/>
<path d="M171 2913 c-17 -36 -13 -39 12 -7 l22 29 7 -35 6 -35 -1 34 c-2 42
-29 50 -46 14z"/>
<path d="M61 2903 c2 -24 2 -25 6 -6 4 22 5 22 31 6 15 -10 35 -26 45 -37 9
-10 17 -14 17 -8 0 12 -76 72 -92 72 -4 0 -7 -12 -7 -27z"/>
<path d="M823 2919 c-6 -6 -21 -16 -34 -23 -12 -6 -25 -18 -27 -26 -4 -12 -1
-11 15 3 11 9 22 15 25 12 11 -12 -14 -101 -39 -140 -14 -22 -19 -34 -10 -27
9 8 26 34 37 58 26 52 60 77 60 44 0 -30 -25 -75 -57 -100 -23 -18 -24 -20 -3
-8 34 21 60 58 70 101 8 39 2 44 -30 27 -17 -9 -19 -7 -16 25 2 19 9 41 16 50
14 17 9 20 -7 4z"/>
<path d="M560 2888 c0 -3 7 -25 15 -48 8 -23 13 -45 12 -49 -2 -3 15 -22 37
-41 36 -30 38 -31 14 -5 -41 46 -74 135 -49 135 4 0 26 -12 47 -26 l39 -26
-25 26 c-22 22 -90 48 -90 34z"/>
<path d="M95 2830 c10 -11 20 -20 23 -20 3 0 -3 9 -13 20 -10 11 -20 20 -23
20 -3 0 3 -9 13 -20z"/>
<path d="M672 2800 c0 -14 2 -19 5 -12 2 6 2 18 0 25 -3 6 -5 1 -5 -13z"/>
<path d="M157 2770 c3 -25 7 -47 9 -49 8 -9 2 55 -6 74 -6 13 -7 5 -3 -25z"/>
<path d="M520 2796 c0 -29 78 -88 113 -85 7 0 -1 5 -18 11 -31 11 -75 46 -75
59 0 4 8 9 18 11 12 3 9 6 -10 10 -17 3 -28 1 -28 -6z"/>
<path d="M681 2754 c0 -11 3 -14 6 -6 3 7 2 16 -1 19 -3 4 -6 -2 -5 -13z"/>
<path d="M230 2730 c-14 -11 -20 -20 -15 -19 13 0 50 28 44 33 -2 3 -15 -4
-29 -14z"/>
<path d="M130 2702 c17 -16 35 -42 40 -58 7 -24 8 -25 9 -7 1 22 -53 93 -71
93 -5 0 5 -13 22 -28z"/>
<path d="M251 2704 c0 -11 3 -14 6 -6 3 7 2 16 -1 19 -3 4 -6 -2 -5 -13z"/>
<path d="M195 2689 c-4 -6 -5 -12 -2 -15 2 -3 7 2 10 11 7 17 1 20 -8 4z"/>
<path d="M710 2645 c-1 -27 -5 -70 -8 -94 -6 -39 -9 -42 -21 -28 -7 10 -19 17
-27 17 -14 0 -34 -31 -34 -52 1 -7 8 0 16 15 15 28 16 28 36 10 11 -10 27 -31
35 -48 l14 -30 -6 31 c-3 17 -1 43 5 58 5 15 6 25 2 22 -5 -3 -6 21 -4 53 2
32 2 66 -1 77 -2 10 -6 -3 -7 -31z"/>
<path d="M40 2661 c0 -13 50 -71 60 -71 5 0 -5 14 -22 31 -25 25 -29 33 -17
40 11 7 11 9 -3 9 -10 0 -18 -4 -18 -9z"/>
<path d="M100 2654 c0 -6 9 -23 20 -37 15 -19 17 -27 8 -31 -9 -4 -8 -5 2 -5
33 2 38 -3 44 -53 6 -45 13 -59 47 -89 21 -20 39 -33 39 -28 0 5 -14 21 -30
36 -32 28 -55 91 -47 129 2 13 0 21 -4 18 -12 -7 -51 21 -66 48 -7 13 -12 18
-13 12z"/>
<path d="M215 2630 c-10 -11 -16 -22 -14 -24 2 -2 12 7 22 20 22 29 17 32 -8
4z"/>
<path d="M480 2613 c0 -26 37 -77 82 -113 40 -31 38 -29 -14 27 -32 34 -58 66
-58 72 0 6 12 11 26 11 25 0 64 -32 92 -75 7 -11 6 -6 -2 10 -20 41 -55 71
-93 78 -26 5 -33 3 -33 -10z"/>
<path d="M754 2598 c-14 -17 -15 -20 -2 -9 28 21 41 3 36 -53 -4 -51 -42 -126
-64 -126 -6 0 -16 -17 -22 -39 -17 -56 -14 -62 7 -16 10 22 27 48 39 58 11 10
25 31 32 47 7 16 19 31 27 35 47 17 22 -46 -45 -119 l-56 -61 53 50 c52 48 95
120 84 138 -3 5 -14 7 -24 4 -15 -4 -18 -1 -13 18 5 19 -18 95 -29 95 -2 0
-12 -10 -23 -22z"/>
<path d="M65 2530 c73 -34 102 -64 108 -110 l4 -35 1 35 c2 46 -32 83 -105
116 -76 33 -82 29 -8 -6z"/>
<path d="M279 2503 c-13 -17 -13 -17 6 -3 11 8 22 16 24 17 2 2 0 3 -6 3 -6 0
-17 -8 -24 -17z"/>
<path d="M514 2486 c-7 -17 38 -107 68 -137 21 -20 21 -21 3 -14 -11 4 -33 9
-50 12 -26 3 -24 0 15 -18 69 -31 100 -66 100 -110 0 -54 -27 -177 -45 -202
-8 -12 -15 -26 -15 -32 0 -5 9 5 20 23 27 45 40 40 40 -15 l0 -46 26 24 27 24
-7 -30 c-4 -16 -22 -45 -39 -64 l-32 -34 37 27 c26 20 39 38 44 62 7 39 0 54
-18 36 -19 -19 -28 -14 -28 16 0 15 -5 33 -11 39 -9 9 -9 23 -1 55 27 104 32
156 16 187 -9 17 -19 31 -24 31 -20 0 -73 56 -95 101 -31 60 -32 73 -5 59 11
-6 20 -8 20 -6 0 3 -9 10 -20 16 -16 8 -22 8 -26 -4z m127 -187 c13 -26 7 -24
-22 7 -17 19 -19 23 -6 18 10 -3 22 -15 28 -25z"/>
<path d="M69 2477 c16 -21 63 -47 83 -47 7 1 -3 8 -22 16 -19 8 -43 23 -55 32
-19 16 -19 16 -6 -1z"/>
<path d="M312 2460 c0 -19 2 -27 5 -17 2 9 2 25 0 35 -3 9 -5 1 -5 -18z"/>
<path d="M614 2433 c4 -42 52 -133 70 -133 5 0 2 8 -6 18 -22 24 -47 75 -58
119 l-10 38 4 -42z"/>
<path d="M92 2411 c-23 -14 33 -70 79 -77 21 -4 43 -12 47 -18 15 -18 32 -76
23 -76 -13 0 -20 -82 -9 -102 10 -21 -6 -24 -46 -8 -25 9 -65 74 -54 86 4 3
17 0 30 -6 22 -11 22 -11 -2 9 -14 11 -28 21 -32 21 -13 0 -9 -39 7 -71 9 -16
14 -33 11 -38 -8 -12 45 -58 74 -65 20 -5 19 -3 -7 10 -47 25 -49 41 -5 40 40
-1 80 -29 86 -61 2 -11 29 -101 59 -200 30 -99 63 -220 72 -268 l18 -88 -27
-67 c-15 -37 -35 -101 -45 -142 l-18 -75 -35 55 c-71 113 -117 208 -138 285
-26 93 -36 111 -56 94 -20 -16 -17 -86 6 -161 21 -69 64 -139 154 -254 l55
-70 -19 -110 c-22 -129 -39 -281 -42 -379 -3 -125 -9 -131 -46 -40 -35 89 -54
171 -73 323 -8 69 -16 102 -25 102 -13 0 -18 -11 -29 -67 -11 -55 15 -142 93
-313 75 -164 75 -166 81 -270 6 -94 7 -82 13 125 8 262 41 571 64 594 8 8 49
-47 98 -134 43 -75 46 -84 46 -155 0 -99 -25 -332 -44 -406 -8 -33 -17 -79
-21 -103 -9 -58 -59 -232 -76 -262 -11 -22 -11 -23 4 -10 34 27 130 407 142
562 6 70 10 80 42 115 50 55 101 133 166 254 69 129 103 217 112 290 6 49 4
58 -15 75 -21 19 -23 19 -34 2 -7 -9 -16 -47 -19 -84 -13 -148 -72 -317 -154
-440 -88 -132 -83 -140 -84 138 0 188 -4 268 -18 349 l-18 105 43 52 c24 28
101 105 170 170 182 170 273 300 295 418 11 61 5 95 -16 95 -18 0 -27 -17 -75
-146 -46 -128 -114 -232 -227 -350 -43 -45 -103 -111 -133 -147 -30 -37 -58
-67 -62 -67 -20 0 -4 73 41 193 55 149 68 197 52 197 -30 0 -52 105 -32 155 8
19 9 18 21 -7 7 -16 17 -28 22 -28 11 0 2 18 -26 48 l-20 23 -13 -53 c-11 -50
-10 -56 14 -106 l25 -53 -47 -135 c-26 -74 -51 -136 -55 -139 -4 -3 -13 23
-19 58 -7 34 -27 114 -46 177 -29 98 -32 122 -25 162 10 53 40 118 64 137 9 8
16 18 16 24 0 24 -50 -39 -75 -95 l-28 -61 -19 49 c-14 37 -16 55 -8 72 15 34
13 47 -6 31 -14 -11 -21 -8 -49 22 -26 29 -31 42 -27 67 2 18 5 32 7 32 1 0
18 -7 38 -15 22 -9 39 -25 45 -42 6 -16 11 -22 11 -15 1 7 -3 21 -8 31 -10 19
-4 61 9 61 4 0 15 -16 25 -35 27 -48 31 -36 5 15 -20 38 -20 43 -6 65 17 26
22 105 6 105 -15 0 -60 -84 -59 -111 1 -21 2 -20 8 6 4 17 16 44 27 60 l19 29
4 -24 c4 -29 -38 -112 -52 -103 -6 3 -7 2 -4 -3 3 -6 2 -16 -2 -23 -7 -11 -14
-10 -37 2 -16 8 -28 19 -27 24 2 4 0 22 -3 39 -3 18 -1 41 5 52 11 20 10 20
-19 10 -17 -6 -45 -7 -62 -4 -52 10 -88 56 -55 69 6 3 8 6 2 6 -5 0 -16 -3
-23 -8z m874 -374 c-17 -57 -79 -167 -102 -180 -8 -5 -12 -12 -10 -16 3 -4
-13 -25 -36 -47 l-41 -39 33 50 c19 28 36 52 40 55 11 9 42 81 71 167 16 47
34 92 41 101 11 13 13 12 16 -11 2 -15 -4 -51 -12 -80z m-802 -484 c8 -34 29
-90 46 -124 29 -57 34 -99 10 -84 -15 9 -59 100 -76 154 -15 51 -19 156 -5
131 5 -8 16 -43 25 -77z m296 -113 c0 -11 -14 -41 -31 -68 -33 -50 -33 -47 -4
36 19 53 35 68 35 32z m25 -136 c8 -49 14 -150 14 -224 l0 -135 -48 95 c-26
53 -55 107 -64 120 -9 14 -17 32 -17 41 0 31 86 206 97 196 2 -2 10 -44 18
-93z m318 -21 c-1 -60 -24 -133 -41 -133 -6 0 -6 17 -1 43 4 23 11 68 14 100
9 79 31 71 28 -10z m-505 -9 c52 -81 54 -84 48 -84 -11 0 -96 122 -96 138 0
20 2 17 48 -54z m448 -181 c-18 -33 -21 -26 -6 13 6 15 13 24 16 21 3 -3 -1
-18 -10 -34z m-582 -273 c5 -42 3 -40 -19 25 -24 70 -31 147 -18 182 7 16 18
-48 37 -207z"/>
<path d="M180 2372 c0 -12 19 -26 26 -19 2 2 -2 10 -11 17 -9 8 -15 8 -15 2z"/>
<path d="M360 2140 c-6 -11 -8 -20 -6 -20 3 0 10 9 16 20 6 11 8 20 6 20 -3 0
-10 -9 -16 -20z"/>
<path d="M470 1960 c0 -5 7 -7 15 -4 8 4 15 8 15 10 0 2 -7 4 -15 4 -8 0 -15
-4 -15 -10z"/>
<path d="M582 1920 c0 -19 2 -27 5 -17 2 9 2 25 0 35 -3 9 -5 1 -5 -18z"/>
<path d="M481 1923 c-1 -32 9 -52 33 -65 20 -11 21 -10 3 9 -10 12 -22 34 -27
49 -7 24 -8 25 -9 7z"/>
<path d="M636 1923 c-6 -14 -5 -15 5 -6 7 7 10 15 7 18 -3 3 -9 -2 -12 -12z"/>
</g>
</svg>
