<?xml version="1.0" standalone="no"?>
<!DOCTYPE svg PUBLIC "-//W3C//DTD SVG 20010904//EN"
 "http://www.w3.org/TR/2001/REC-SVG-20010904/DTD/svg10.dtd">
<svg version="1.0" xmlns="http://www.w3.org/2000/svg"
 width="348.000000pt" height="356.000000pt" viewBox="0 0 348.000000 356.000000"
 preserveAspectRatio="xMidYMid meet">

<g transform="translate(0.000000,356.000000) scale(0.100000,-0.100000)"
fill="#000000" stroke="none">
<path d="M900 3537 c0 -12 97 -111 155 -158 22 -17 44 -43 89 -103 25 -33 29
-47 30 -115 2 -61 7 -83 26 -112 24 -36 130 -116 225 -170 28 -16 67 -48 85
-72 19 -23 45 -51 58 -62 14 -11 40 -34 59 -51 18 -18 79 -63 135 -100 115
-77 187 -102 328 -113 47 -4 95 -13 107 -19 25 -14 53 -61 53 -90 0 -10 4 -22
10 -28 6 -6 -5 -8 -31 -6 -25 3 -72 -6 -127 -23 -105 -33 -183 -31 -337 9
-315 81 -402 97 -525 101 -188 6 -327 -25 -530 -117 -151 -68 -249 -152 -355
-302 -65 -91 -168 -275 -194 -346 -32 -85 -40 -196 -25 -335 13 -112 12 -125
-6 -198 -11 -43 -41 -118 -66 -167 -38 -75 -45 -96 -40 -125 16 -83 85 -119
246 -129 128 -7 197 -27 310 -89 115 -64 158 -83 230 -103 154 -42 402 -16
663 70 60 20 113 36 119 36 6 0 19 7 28 15 14 13 21 6 70 -72 129 -202 143
-220 234 -295 12 -9 37 -30 56 -46 48 -39 137 -92 155 -92 8 0 15 -4 15 -9 0
-15 147 -68 240 -87 96 -19 289 -14 408 12 37 7 93 14 124 14 71 0 203 47 260
92 50 41 156 171 208 258 44 74 68 152 77 259 5 55 3 72 -5 67 -7 -4 -11 -17
-11 -29 1 -12 -8 -66 -19 -119 -18 -84 -28 -109 -75 -180 -84 -130 -173 -219
-260 -262 -87 -43 -131 -52 -297 -61 -211 -11 -338 27 -496 151 -177 137 -259
236 -301 359 -9 28 -23 61 -32 74 -18 29 -30 105 -37 258 -5 97 -3 127 21 235
39 184 73 279 122 351 18 26 33 50 33 53 0 4 11 16 25 28 13 11 35 36 48 54
27 35 108 89 227 151 89 45 188 63 300 54 89 -7 117 -21 188 -91 30 -29 99
-92 155 -140 167 -144 197 -179 241 -284 22 -51 57 -128 79 -172 47 -96 77
-207 78 -295 2 -108 17 -130 18 -26 1 58 -6 117 -18 165 -16 64 -111 284 -179
415 -20 38 -130 147 -257 252 -89 74 -125 110 -125 123 0 15 -22 33 -75 62
-37 20 -54 22 -210 21 -154 -1 -177 -3 -245 -26 -41 -14 -76 -24 -78 -22 -2 2
1 12 6 22 5 10 22 72 37 138 28 127 29 201 1 267 -9 21 -11 41 -5 62 14 49 10
99 -9 129 -17 25 -18 33 -6 95 21 105 18 246 -7 328 -23 80 -87 211 -110 227
-9 7 -19 22 -23 34 -4 13 -30 44 -58 70 -28 27 -64 61 -79 78 -28 28 -36 25
-23 -9 3 -9 9 -16 13 -16 17 0 111 -102 156 -170 28 -41 52 -77 56 -80 3 -3
18 -45 34 -95 36 -112 44 -240 21 -329 -9 -32 -17 -61 -20 -63 -6 -6 -46 66
-46 84 0 28 -104 182 -143 211 -11 9 -16 21 -12 33 8 25 8 111 0 148 -12 55
-27 34 -23 -31 3 -35 2 -73 -1 -86 -5 -20 -8 -21 -24 -10 -13 10 -21 34 -27
78 -4 36 -17 89 -28 118 -24 62 -96 162 -117 162 -8 0 -15 7 -15 15 0 8 -4 15
-10 15 -15 0 -140 121 -140 136 0 8 -4 14 -10 14 -21 0 -9 -38 26 -78 19 -23
39 -42 44 -42 5 0 32 -22 62 -50 29 -27 61 -53 71 -56 9 -3 15 -10 11 -15 -3
-6 3 -21 15 -33 39 -41 87 -216 60 -216 -7 0 -22 9 -33 19 -12 11 -35 27 -52
38 -95 55 -275 191 -331 249 -12 12 -31 28 -41 36 -10 7 -36 41 -58 75 -36 57
-64 85 -64 64 0 -20 101 -161 115 -161 8 0 14 -4 13 -8 -2 -5 32 -39 75 -78
94 -84 81 -95 -45 -36 -84 39 -278 167 -278 183 0 5 -7 9 -15 9 -8 0 -15 -3
-15 -7 0 -27 244 -199 333 -234 28 -12 83 -25 121 -30 51 -6 77 -15 95 -32 14
-13 46 -36 71 -51 25 -15 65 -43 90 -62 25 -20 57 -45 73 -56 30 -24 30 -36
-1 -19 -11 6 -53 15 -94 21 -103 14 -195 35 -255 57 -7 3 -13 -1 -13 -9 0 -23
63 -45 190 -68 176 -32 207 -40 244 -65 19 -13 38 -20 42 -17 4 4 4 2 0 -5 -3
-6 -2 -14 3 -17 23 -15 128 -232 117 -243 -2 -3 -17 4 -32 14 -20 13 -56 20
-123 24 -112 7 -210 34 -275 75 -133 83 -250 182 -291 244 -12 19 -49 50 -81
69 -192 112 -234 156 -240 255 -5 84 -33 134 -136 241 -48 49 -88 93 -88 98 0
7 30 10 103 9 20 0 37 3 37 7 0 3 36 5 80 5 57 -1 80 2 80 11 0 18 -186 21
-207 4 -9 -8 -17 -9 -21 -3 -4 5 -27 10 -52 9 -25 0 -57 3 -72 8 -21 5 -28 4
-28 -6z m1400 -1133 c11 -33 6 -93 -7 -80 -3 3 -10 25 -14 48 -4 24 -11 54
-15 68 -7 22 -6 24 9 12 9 -8 21 -29 27 -48z m-925 -24 c49 -6 110 -18 135
-26 25 -9 63 -19 85 -24 22 -4 65 -15 95 -24 67 -20 255 -56 292 -56 15 0 76
14 135 30 108 30 137 31 147 5 3 -8 12 -15 19 -15 17 0 33 -38 42 -96 6 -38
-10 -143 -33 -219 -49 -157 -41 -145 -112 -180 -79 -38 -146 -81 -194 -123
-37 -32 -111 -149 -135 -212 -18 -45 -91 -210 -146 -327 -24 -50 -68 -126 -98
-170 -72 -102 -79 -136 -42 -214 16 -32 27 -60 24 -62 -18 -13 -274 -91 -354
-107 -126 -26 -365 -38 -421 -21 -74 23 -149 55 -199 84 -134 80 -239 117
-328 117 -25 0 -49 5 -53 11 -3 6 -37 31 -74 55 -81 52 -95 83 -62 137 25 40
58 136 70 202 5 32 4 91 -4 165 -13 117 -4 283 17 304 5 6 9 17 9 25 1 24 123
255 154 291 8 8 21 29 29 46 26 51 154 180 225 228 116 77 316 155 452 176 70
11 226 11 325 0z m970 -577 c-88 -45 -212 -154 -279 -246 -37 -51 -84 -167
-101 -252 -8 -38 -21 -101 -29 -140 -22 -102 -24 -163 -14 -320 9 -121 14
-148 39 -202 16 -34 29 -71 29 -81 0 -11 11 -36 25 -56 14 -20 37 -53 51 -73
33 -49 68 -87 131 -143 82 -73 93 -81 105 -74 7 4 8 3 4 -4 -14 -24 198 -142
256 -142 10 0 18 -3 18 -8 0 -8 -131 -5 -188 4 -23 4 -36 12 -42 30 -5 13 -13
24 -17 24 -5 0 -22 12 -38 27 -17 14 -40 35 -52 46 -41 36 -27 -7 16 -55 22
-23 39 -44 37 -45 -13 -14 -234 95 -241 119 -3 9 -18 31 -34 49 -25 28 -30 30
-38 16 -8 -15 -13 -14 -47 9 -23 16 -35 31 -32 40 6 15 -18 79 -34 89 -6 3
-13 -1 -16 -10 -4 -10 4 -28 22 -47 25 -26 26 -29 7 -19 -21 11 -103 110 -103
124 0 4 -14 26 -31 51 -20 28 -33 59 -35 86 -4 49 -10 60 -32 60 -19 0 -92 63
-92 80 0 6 5 8 10 5 16 -10 12 34 -7 65 -16 28 -16 29 23 82 57 75 77 111 122
213 22 50 63 139 91 198 28 60 51 113 51 118 0 13 59 120 87 157 13 18 48 50
78 73 54 41 316 179 338 179 7 -1 -10 -13 -38 -27z"/>
<path d="M1133 2333 c-27 -5 -30 -18 -7 -27 26 -10 124 -7 124 4 0 17 -74 31
-117 23z"/>
<path d="M1308 2303 c-33 -8 -18 -21 30 -25 56 -5 67 -1 51 18 -11 14 -45 17
-81 7z"/>
<path d="M1490 2300 c0 -5 17 -12 38 -16 20 -3 55 -10 77 -14 64 -14 61 7 -4
29 -41 13 -111 15 -111 1z"/>
<path d="M885 2283 c-28 -7 -39 -19 -32 -38 5 -11 11 -13 24 -6 10 6 35 13 56
16 48 8 52 36 5 34 -18 -1 -42 -3 -53 -6z"/>
<path d="M2221 2252 c-15 -28 -14 -75 1 -70 16 6 29 58 19 76 -7 13 -10 12
-20 -6z"/>
<path d="M1072 2224 c-36 -25 -27 -37 21 -30 50 8 69 23 47 36 -22 14 -43 12
-68 -6z"/>
<path d="M806 2215 c-17 -17 -21 -35 -8 -35 18 0 62 26 59 35 -6 17 -34 17
-51 0z"/>
<path d="M1767 2224 c-13 -13 5 -24 39 -24 24 0 34 4 32 13 -5 13 -60 22 -71
11z"/>
<path d="M1328 2213 c-36 -9 -17 -23 33 -23 36 0 49 4 47 13 -5 13 -50 19 -80
10z"/>
<path d="M1880 2200 c-13 -8 -13 -9 0 -14 8 -2 30 -9 49 -15 44 -14 49 -9 15
18 -29 23 -42 25 -64 11z"/>
<path d="M1666 2183 c-12 -13 -5 -21 25 -32 39 -13 39 -13 39 -1 0 12 -55 41
-64 33z"/>
<path d="M2110 2155 c0 -14 7 -28 15 -32 23 -8 27 1 16 31 -13 33 -31 34 -31
1z"/>
<path d="M710 2150 c0 -23 8 -25 32 -6 20 15 14 26 -14 26 -11 0 -18 -7 -18
-20z"/>
<path d="M894 2145 c-9 -21 -4 -24 29 -18 32 6 31 26 -1 31 -13 2 -25 -3 -28
-13z"/>
<path d="M2000 2153 c0 -15 98 -118 105 -111 10 10 -15 49 -27 42 -7 -4 -8 -3
-4 5 4 6 -5 24 -23 41 -28 29 -51 39 -51 23z"/>
<path d="M1310 2096 c0 -10 9 -16 21 -16 24 0 21 23 -4 28 -10 2 -17 -3 -17
-12z"/>
<path d="M2224 2076 c-13 -27 -15 -39 -7 -47 9 -9 16 -2 28 26 21 53 3 71 -21
21z"/>
<path d="M532 2084 c-13 -9 -22 -26 -22 -40 l0 -26 30 25 c16 14 35 27 41 29
15 5 3 28 -14 28 -7 0 -23 -7 -35 -16z"/>
<path d="M1068 2076 c-28 -21 -23 -39 10 -31 33 8 46 20 38 34 -9 15 -27 13
-48 -3z"/>
<path d="M1172 2067 c-18 -21 0 -40 23 -24 10 8 15 19 11 25 -9 16 -21 15 -34
-1z"/>
<path d="M617 2025 c-25 -24 -37 -55 -19 -55 17 1 75 58 68 68 -10 17 -18 15
-49 -13z"/>
<path d="M756 2034 c-16 -16 -21 -34 -9 -34 22 0 73 26 73 37 0 18 -45 16 -64
-3z"/>
<path d="M2190 1920 c0 -13 5 -20 13 -17 6 2 12 10 12 17 0 7 -6 15 -12 18 -8
2 -13 -5 -13 -18z"/>
<path d="M392 1858 c-26 -50 -27 -58 -7 -58 16 0 58 77 49 91 -10 17 -19 9
-42 -33z"/>
<path d="M490 1821 c-12 -23 -13 -61 -2 -61 8 0 42 57 42 71 0 17 -29 9 -40
-10z"/>
<path d="M240 1509 c-7 -11 -9 -33 -5 -47 l7 -27 13 25 c17 29 19 70 5 70 -5
0 -14 -9 -20 -21z"/>
<path d="M266 1323 c-7 -24 5 -42 25 -43 13 0 17 55 6 62 -19 12 -24 9 -31
-19z"/>
<path d="M206 1092 c-7 -12 -1 -91 9 -100 4 -4 6 2 4 13 -1 11 1 33 6 48 8 29
-7 59 -19 39z"/>
<path d="M120 920 c0 -20 22 -57 42 -69 11 -7 18 -9 16 -4 -2 4 -12 25 -21 46
-16 34 -37 50 -37 27z"/>
<path d="M280 914 c0 -16 23 -44 35 -44 20 0 19 13 -3 33 -19 17 -32 22 -32
11z"/>
<path d="M250 823 c0 -16 15 -30 47 -47 37 -18 43 -19 43 -7 0 5 -17 20 -37
32 -49 31 -53 32 -53 22z"/>
<path d="M490 761 c0 -11 48 -51 61 -51 21 0 7 31 -21 45 -34 17 -40 18 -40 6z"/>
<path d="M990 715 c0 -18 34 -28 71 -20 44 10 29 30 -24 32 -34 1 -47 -2 -47
-12z"/>
<path d="M1201 717 c-14 -6 -27 -18 -29 -26 -4 -11 3 -13 29 -7 39 7 54 20 45
35 -9 14 -15 14 -45 -2z"/>
<path d="M690 690 c0 -11 25 -25 63 -34 44 -10 34 21 -10 33 -47 13 -53 13
-53 1z"/>
<path d="M1438 686 c-16 -12 -25 -36 -14 -36 20 0 56 22 56 35 0 18 -19 19
-42 1z"/>
<path d="M1228 644 c-35 -18 -36 -34 -3 -34 32 0 76 21 72 34 -6 17 -39 17
-69 0z"/>
<path d="M922 631 c-47 -9 -40 -26 10 -26 33 0 44 4 46 18 4 18 -1 19 -56 8z"/>
<path d="M1826 1189 c-9 -45 -7 -69 4 -69 12 0 33 77 25 90 -11 18 -22 10 -29
-21z"/>
<path d="M1760 1006 c0 -19 4 -38 10 -41 12 -7 24 39 16 60 -10 27 -26 16 -26
-19z"/>
<path d="M1690 907 c0 -22 6 -37 15 -41 16 -6 16 -6 19 39 1 21 -4 31 -16 33
-14 3 -18 -4 -18 -31z"/>
<path d="M1730 611 c0 -19 23 -71 31 -71 14 0 10 43 -5 63 -14 18 -26 22 -26
8z"/>
<path d="M1860 538 c1 -7 9 -28 19 -47 23 -43 37 -24 17 24 -14 34 -36 48 -36
23z"/>
<path d="M1790 520 c0 -6 7 -24 15 -40 27 -53 48 -30 23 25 -11 25 -38 35 -38
15z"/>
<path d="M1957 484 c-7 -7 44 -74 55 -74 8 0 -30 67 -42 75 -4 2 -10 2 -13 -1z"/>
<path d="M1940 370 c19 -38 40 -53 40 -30 0 22 -31 70 -45 70 -13 0 -12 -7 5
-40z"/>
<path d="M2016 341 c-6 -9 54 -91 66 -91 15 0 8 17 -22 58 -32 44 -36 47 -44
33z"/>
<path d="M2130 227 c0 -18 62 -87 79 -87 18 0 13 10 -26 54 -42 47 -53 54 -53
33z"/>
<path d="M1307 3527 c-14 -10 3 -12 95 -11 62 0 125 -3 141 -7 19 -6 27 -4 27
6 0 7 -6 15 -12 17 -21 8 -202 2 -222 -7 -14 -6 -17 -5 -12 3 9 15 4 15 -17
-1z"/>
<path d="M1594 3498 c-5 -8 0 -9 14 -6 12 4 22 3 22 -1 0 -6 60 -32 86 -37 6
-1 22 -5 35 -9 22 -7 22 -6 10 9 -8 9 -20 15 -26 12 -7 -2 -24 2 -38 9 -14 7
-28 11 -30 9 -2 -3 -10 2 -17 11 -15 18 -46 20 -56 3z"/>
<path d="M1790 3429 c0 -6 7 -9 15 -5 8 3 15 1 15 -4 0 -5 9 -14 20 -20 24
-13 27 2 4 24 -18 18 -54 21 -54 5z"/>
<path d="M1890 3381 c0 -5 11 -16 25 -25 14 -9 36 -23 50 -32 15 -10 25 -12
25 -6 0 17 -42 52 -62 52 -10 0 -18 5 -18 10 0 6 -4 10 -10 10 -5 0 -10 -4
-10 -9z"/>
<path d="M2613 1740 c-12 -5 -25 -21 -29 -35 -12 -47 17 -223 66 -400 33 -121
39 -154 40 -227 0 -55 4 -69 20 -81 10 -7 24 -25 29 -40 6 -15 15 -27 21 -27
5 0 10 -7 10 -15 0 -8 9 -19 20 -25 27 -14 430 -23 479 -10 71 19 79 89 31
278 -25 100 -80 171 -133 172 -25 0 -26 2 -15 20 9 14 10 23 3 28 -6 4 -17 27
-25 52 -20 61 -69 132 -102 148 -36 17 -61 4 -78 -40 -7 -18 -27 -62 -43 -98
-16 -36 -44 -105 -62 -155 -18 -49 -44 -116 -58 -147 -49 -109 -45 -60 10 122
39 132 83 329 83 375 0 43 -32 70 -109 95 -67 21 -121 25 -158 10z m161 -39
l29 -12 -7 -74 c-5 -51 -3 -75 4 -75 16 0 30 45 30 96 0 52 23 58 28 8 3 -29
-33 -203 -63 -304 -9 -30 -29 -103 -44 -162 -15 -59 -30 -110 -33 -113 -3 -3
-8 23 -11 57 -6 66 -51 259 -67 288 -5 9 -16 74 -25 144 -16 122 -16 128 2
148 15 17 26 19 73 15 30 -3 68 -10 84 -16z m270 -162 c37 -29 64 -87 72 -151
5 -46 3 -56 -15 -72 -11 -10 -18 -23 -14 -29 3 -5 2 -7 -4 -4 -11 7 -54 -36
-97 -98 -48 -67 -194 -215 -213 -215 -27 0 -23 26 15 113 22 51 50 119 62 152
12 33 29 76 37 97 8 20 12 42 8 49 -5 7 -4 10 2 6 6 -4 20 16 32 46 12 28 26
59 31 67 6 8 14 25 20 38 12 28 30 28 64 1z m180 -266 c17 -14 31 -33 31 -42
0 -9 8 -41 16 -71 49 -170 51 -209 12 -240 -24 -19 -39 -21 -157 -20 -156 1
-316 10 -316 19 0 3 30 37 66 76 37 38 83 94 102 124 75 117 141 180 191 181
13 0 37 -12 55 -27z"/>
<path d="M2693 1647 c4 -30 11 -66 16 -79 8 -21 10 -21 16 -4 11 26 -7 129
-24 134 -11 4 -13 -6 -8 -51z"/>
<path d="M2650 1548 c0 -20 24 -78 32 -78 12 0 10 35 -4 65 -12 26 -28 34 -28
13z"/>
<path d="M2710 1423 c0 -56 12 -95 23 -77 13 22 18 94 7 113 -19 36 -30 23
-30 -36z"/>
<path d="M2985 1434 c-32 -49 -55 -134 -37 -134 9 0 29 36 59 105 9 22 19 43
21 48 10 20 -28 4 -43 -19z"/>
<path d="M3054 1384 c3 -8 2 -13 -3 -9 -11 6 -51 -56 -51 -80 0 -26 22 -12 53
34 28 40 30 71 6 71 -6 0 -8 -7 -5 -16z"/>
<path d="M2918 1245 c-19 -24 -24 -65 -10 -65 12 0 53 76 45 84 -10 10 -17 7
-35 -19z"/>
<path d="M3168 1148 c-66 -38 -37 -63 31 -27 33 17 39 24 30 35 -15 18 -17 18
-61 -8z"/>
<path d="M2955 1035 c-15 -19 -25 -42 -23 -51 2 -14 11 -10 40 22 21 21 38 45
38 52 0 23 -29 12 -55 -23z"/>
<path d="M3163 1037 c-41 -10 -55 -28 -33 -42 15 -10 121 26 117 39 -5 15 -33
16 -84 3z"/>
<path d="M3180 964 c-19 -7 -57 -13 -83 -13 -34 -1 -47 -5 -45 -13 10 -30 178
-13 178 18 0 20 -12 22 -50 8z"/>
<path d="M2348 1650 c-108 -56 -149 -164 -95 -251 39 -63 133 -167 262 -291
39 -36 75 -74 81 -84 53 -89 64 96 13 242 -48 142 -89 297 -89 340 0 41 -36
74 -81 74 -19 -1 -60 -14 -91 -30z m125 -9 c20 -8 25 -19 30 -58 10 -79 36
-184 63 -252 38 -95 54 -164 54 -234 l-1 -62 -169 173 c-171 175 -207 225
-198 283 3 20 6 17 32 -24 49 -77 64 -56 21 29 -22 42 -23 52 -13 72 13 25 73
60 123 73 17 4 31 7 32 8 1 1 13 -3 26 -8z"/>
<path d="M2432 1523 c6 -21 17 -51 26 -68 14 -27 16 -28 22 -10 8 22 -1 51
-26 90 -24 36 -34 31 -22 -12z"/>
<path d="M2370 1490 c0 -18 40 -90 50 -90 12 0 5 34 -17 70 -17 30 -33 39 -33
20z"/>
<path d="M2480 1346 c0 -8 13 -43 30 -78 16 -34 30 -68 30 -74 0 -6 7 -17 15
-24 27 -22 17 10 -41 138 -24 52 -34 64 -34 38z"/>
<path d="M2094 1343 c-20 -46 -34 -132 -34 -204 0 -83 17 -95 205 -147 122
-34 265 -56 295 -47 33 11 18 47 -45 107 -33 31 -78 71 -100 88 -22 17 -77 69
-123 116 -74 75 -142 124 -172 124 -6 0 -18 -16 -26 -37z m105 -27 c25 -19 89
-78 141 -132 83 -84 90 -94 55 -76 -22 12 -51 33 -64 47 -32 34 -39 24 -10
-14 27 -33 124 -103 132 -94 3 3 3 12 -1 21 -3 9 15 -1 41 -22 54 -44 62 -76
20 -76 -82 1 -294 53 -382 93 l-44 20 6 96 c5 95 27 171 48 171 6 0 32 -15 58
-34z"/>
<path d="M2150 1279 c1 -14 48 -54 56 -47 2 3 -10 17 -26 33 -19 18 -30 24
-30 14z"/>
<path d="M2190 1189 c0 -25 121 -111 136 -96 11 10 -16 37 -73 74 -57 36 -63
38 -63 22z"/>
<path d="M2110 1117 c0 -21 8 -26 103 -66 5 -2 7 7 5 19 -2 16 -18 29 -55 46
l-53 23 0 -22z"/>
<path d="M2087 968 c-19 -7 -26 -15 -23 -25 4 -8 2 -11 -5 -7 -8 5 -10 -16 -7
-71 3 -70 6 -79 32 -102 26 -22 35 -24 80 -18 52 7 85 19 240 84 27 12 68 21
92 21 44 0 64 14 46 32 -14 14 -223 65 -317 78 -44 6 -87 13 -95 15 -8 2 -28
-1 -43 -7z m140 -33 c93 -15 202 -41 211 -50 3 -2 -4 -8 -14 -12 -10 -3 -50
-20 -89 -36 -89 -37 -184 -67 -211 -67 -30 0 -41 17 -47 74 -7 73 3 94 53 105
3 0 46 -6 97 -14z"/>
<path d="M2117 884 c-16 -17 -4 -24 38 -24 30 0 45 4 45 13 0 14 -71 23 -83
11z"/>
<path d="M2268 868 c-44 -16 -34 -32 14 -24 48 8 53 10 43 25 -7 13 -21 13
-57 -1z"/>
<path d="M2113 825 c-8 -21 -3 -24 30 -18 22 4 25 8 16 19 -15 19 -38 18 -46
-1z"/>
<path d="M2845 851 c-3 -6 -2 -29 1 -52 6 -33 19 -54 58 -95 28 -28 71 -75 96
-103 29 -32 50 -49 60 -46 8 4 11 3 7 -1 -11 -11 134 -154 154 -154 29 0 77
48 93 93 25 66 43 158 42 211 -2 88 -59 111 -311 122 -84 4 -138 11 -152 20
-26 16 -40 18 -48 5z m78 -66 c51 -50 81 -47 35 3 l-23 25 115 -7 c124 -7 244
-28 267 -47 28 -24 -2 -221 -43 -284 -8 -12 -11 -25 -7 -30 5 -4 3 -5 -4 -1
-6 3 -14 2 -18 -4 -18 -29 -54 -3 -193 138 -146 148 -182 192 -182 225 0 25
13 21 53 -18z"/>
<path d="M3030 736 c0 -13 51 -37 128 -61 20 -6 23 -4 20 15 -2 16 -17 26 -58
40 -66 23 -90 25 -90 6z"/>
<path d="M3254 708 c-8 -12 21 -38 43 -38 19 0 16 20 -4 36 -22 17 -30 17 -39
2z"/>
<path d="M3153 638 c3 -17 67 -58 91 -58 16 0 16 2 5 16 -11 14 -81 54 -94 54
-3 0 -4 -6 -2 -12z"/>
<path d="M3114 587 c3 -23 18 -37 56 -57 43 -22 74 -26 68 -10 -5 16 -126 81
-124 67z"/>
<path d="M2459 801 c-151 -66 -339 -201 -339 -245 0 -6 18 -39 40 -72 46 -70
97 -101 152 -90 28 5 43 20 98 102 90 133 160 247 160 262 0 6 7 12 15 12 10
0 15 10 15 30 0 28 -2 30 -37 30 -21 -1 -68 -14 -104 -29z m83 -38 c-31 -67
-112 -195 -170 -268 -4 -5 -19 -25 -32 -42 -38 -53 -117 -37 -164 33 -38 57
-34 75 30 128 75 61 301 183 346 186 4 0 -1 -17 -10 -37z"/>
<path d="M2440 709 c-24 -31 -40 -61 -40 -77 0 -27 0 -27 38 13 56 59 82 96
76 106 -12 20 -36 6 -74 -42z"/>
<path d="M2262 590 c-49 -60 -41 -98 9 -42 47 51 51 58 36 71 -11 8 -21 2 -45
-29z"/>
<path d="M2329 548 c-13 -18 -27 -36 -32 -39 -5 -4 -7 -16 -5 -29 l3 -22 26
21 c33 25 56 78 42 92 -7 7 -18 0 -34 -23z"/>
<path d="M2744 822 c-14 -10 -34 -86 -36 -142 -1 -25 -1 -144 0 -265 3 -261 5
-268 88 -267 76 2 163 29 237 74 72 44 97 70 97 103 0 12 -31 64 -68 117 -65
91 -86 118 -192 243 -25 29 -52 66 -60 82 -16 32 -40 63 -49 63 -3 0 -11 -4
-17 -8z m41 -58 c9 -14 54 -71 98 -127 100 -122 193 -245 208 -274 20 -38 3
-66 -67 -107 -53 -32 -173 -76 -206 -76 -4 0 -5 12 -2 28 7 38 -9 135 -23 139
-15 5 -13 -138 2 -149 12 -9 -21 -22 -38 -15 -14 5 -27 203 -27 401 0 82 18
206 31 206 3 0 14 -12 24 -26z"/>
<path d="M2850 624 c0 -23 22 -108 30 -117 18 -21 19 45 0 87 -20 47 -30 58
-30 30z"/>
<path d="M2796 528 c7 -95 9 -108 24 -108 15 0 12 115 -4 155 -8 19 -18 35
-21 35 -3 0 -3 -37 1 -82z"/>
<path d="M2940 487 c0 -9 79 -125 91 -133 5 -3 9 -2 9 3 0 12 -80 130 -80 118
0 -5 -5 -3 -10 5 -5 8 -10 12 -10 7z"/>
<path d="M2923 406 c3 -8 11 -32 18 -55 7 -22 21 -49 32 -58 19 -18 19 -17 12
7 -11 35 -54 120 -61 120 -3 0 -4 -6 -1 -14z"/>
<path d="M2840 318 c0 -33 14 -67 24 -58 8 9 -6 90 -15 90 -5 0 -9 -15 -9 -32z"/>
<path d="M2608 748 c-14 -13 -38 -45 -52 -73 -38 -71 -65 -116 -90 -146 -34
-40 -99 -179 -99 -211 0 -77 200 -181 231 -121 25 47 54 282 64 508 3 69 -10
80 -54 43z m37 -50 c-17 -141 -26 -224 -30 -288 -8 -121 -34 -204 -63 -198
-14 3 -16 12 -14 61 2 32 0 57 -6 57 -9 0 -27 -74 -23 -93 1 -5 -9 -5 -21 -2
-47 15 -48 22 -17 92 34 75 33 73 15 73 -8 0 -27 -27 -43 -59 -15 -33 -32 -60
-36 -60 -38 -3 7 117 95 251 31 48 66 105 77 127 37 72 72 93 66 39z"/>
<path d="M2579 540 c0 -3 -7 -32 -14 -65 -13 -59 -12 -75 5 -75 13 0 31 123
20 134 -6 6 -10 8 -11 6z"/>
</g>
</svg>
