<?xml version="1.0" standalone="no"?>
<!DOCTYPE svg PUBLIC "-//W3C//DTD SVG 20010904//EN"
 "http://www.w3.org/TR/2001/REC-SVG-20010904/DTD/svg10.dtd">
<svg version="1.0" xmlns="http://www.w3.org/2000/svg"
 width="980.000000pt" height="980.000000pt" viewBox="0 0 980.000000 980.000000"
 preserveAspectRatio="xMidYMid meet">

<g transform="translate(0.000000,980.000000) scale(0.100000,-0.100000)"
fill="#000000" stroke="none">
<path d="M5330 7501 c-270 -29 -571 -215 -762 -471 -181 -244 -272 -505 -296
-854 l-7 -99 -190 -48 c-661 -167 -1376 -489 -1980 -892 -568 -379 -841 -803
-862 -1337 -18 -447 176 -853 545 -1145 280 -221 563 -323 994 -356 164 -13
469 -7 623 11 459 54 895 185 1300 390 253 128 450 257 667 436 59 49 146 121
194 159 47 39 124 110 171 158 46 49 89 87 96 84 7 -2 37 -24 67 -49 306 -246
718 -442 1110 -529 135 -30 412 -38 532 -15 185 35 365 112 504 215 100 75
124 97 215 201 153 174 237 348 291 597 19 93 23 136 22 308 0 218 -12 310
-65 514 -122 466 -469 1054 -889 1506 -342 368 -342 368 -551 547 -245 211
-384 312 -566 410 -203 111 -415 190 -626 233 -135 28 -396 41 -537 26z m-17
-116 c1 -5 -25 -25 -58 -44 -81 -48 -212 -180 -263 -267 -55 -92 -98 -213
-118 -327 -21 -119 -14 -336 15 -452 58 -233 187 -501 396 -820 18 -27 105
-162 193 -298 l161 -248 -29 -47 c-69 -112 -220 -279 -397 -441 -63 -57 -108
-91 -117 -88 -20 8 -278 398 -366 553 -211 371 -324 711 -349 1049 -40 528
152 994 523 1269 98 73 166 110 271 145 88 30 133 36 138 16z m636 -46 c154
-29 383 -124 558 -233 306 -189 685 -511 959 -814 477 -526 821 -1149 935
-1694 40 -190 26 -408 -35 -560 -82 -202 -211 -316 -404 -356 -97 -20 -107
-15 -87 46 22 64 45 207 45 283 0 258 -112 599 -342 1039 -195 373 -399 659
-657 924 -315 321 -642 545 -1011 691 -312 124 -675 191 -825 152 -33 -8 -67
-17 -75 -19 -27 -6 -12 62 37 162 81 169 214 277 429 349 49 17 118 34 154 40
72 11 231 6 319 -10z m-479 -639 c398 -90 739 -253 1077 -515 390 -302 741
-754 1002 -1290 262 -536 328 -850 238 -1137 -22 -72 -23 -73 -60 -76 -75 -6
-373 79 -577 165 -270 114 -530 287 -769 510 l-83 78 11 55 c69 347 9 714
-168 1012 -189 320 -524 523 -964 585 -112 16 -119 18 -133 44 -28 55 -74 273
-81 382 l-6 108 34 35 c64 67 124 85 254 79 50 -2 151 -18 225 -35z m-173
-721 c125 -33 180 -64 265 -149 89 -91 140 -163 170 -245 20 -53 22 -80 23
-220 0 -111 -4 -167 -13 -182 l-12 -22 -55 29 c-31 16 -71 32 -90 36 -32 6
-43 21 -188 253 -180 287 -308 511 -300 524 8 12 105 1 200 -24z m-1026 -139
c22 -139 48 -238 110 -415 28 -81 48 -149 46 -151 -2 -3 -73 -20 -158 -39
-351 -79 -677 -194 -984 -347 -188 -94 -271 -142 -459 -266 -380 -248 -654
-499 -813 -745 -78 -120 -156 -293 -178 -394 -3 -18 -12 -33 -18 -33 -19 0
-117 68 -165 114 -112 106 -154 204 -154 356 1 165 41 315 136 514 104 215
215 362 379 502 231 198 420 316 837 525 440 220 725 325 1240 458 169 43 161
47 181 -79z m1615 -168 c152 -151 247 -328 308 -572 100 -406 6 -833 -275
-1246 -280 -411 -825 -851 -1377 -1111 -492 -232 -995 -346 -1527 -346 -479
-1 -798 79 -1088 270 -86 57 -252 210 -320 296 -286 359 -351 835 -176 1283
49 127 65 143 27 29 -59 -175 -74 -435 -33 -550 51 -143 198 -291 380 -382
209 -105 519 -149 880 -123 459 32 836 116 1180 265 488 211 781 377 1130 638
248 186 519 448 648 628 83 116 169 287 197 394 55 209 27 411 -78 572 -70
108 -6 85 124 -45z m-1324 -670 c92 -185 215 -389 361 -598 48 -68 87 -128 87
-132 -2 -19 -251 -198 -437 -313 -202 -125 -414 -229 -813 -396 -382 -160
-736 -237 -1150 -250 -268 -8 -473 14 -638 68 -34 11 -62 25 -62 31 0 6 16 58
36 117 112 337 383 647 829 950 407 277 818 473 1256 601 122 35 394 99 424
98 16 0 38 -36 107 -176z m1136 50 c2 -7 -3 -12 -12 -12 -9 0 -16 7 -16 16 0
17 22 14 28 -4z m672 -829 c371 -337 865 -578 1325 -648 126 -19 203 -19 300
0 154 29 279 113 372 248 27 39 53 49 53 20 -1 -39 -79 -213 -130 -288 -68
-102 -233 -267 -330 -332 -135 -90 -288 -155 -435 -184 -97 -19 -325 -17 -450
5 -320 56 -626 179 -934 375 -146 92 -261 178 -261 195 0 7 22 42 50 78 121
160 237 364 295 519 38 101 42 105 74 76 14 -13 46 -42 71 -64z"/>
</g>
</svg>
