<?xml version="1.0" standalone="no"?>
<!DOCTYPE svg PUBLIC "-//W3C//DTD SVG 20010904//EN"
 "http://www.w3.org/TR/2001/REC-SVG-20010904/DTD/svg10.dtd">
<svg version="1.0" xmlns="http://www.w3.org/2000/svg"
 width="736.000000pt" height="1041.000000pt" viewBox="0 0 736.000000 1041.000000"
 preserveAspectRatio="xMidYMid meet">

<g transform="translate(0.000000,1041.000000) scale(0.100000,-0.100000)"
fill="#000000" stroke="none">
<path d="M4206 6975 c-18 -43 -20 -78 -6 -104 5 -10 7 -34 3 -54 l-5 -35 -45
24 c-34 18 -44 20 -39 8 3 -9 6 -24 6 -34 0 -19 46 -80 60 -80 5 0 -5 13 -21
29 -27 27 -40 71 -21 71 11 0 54 -31 75 -55 18 -20 18 -20 8 2 -14 27 -14 83
-2 83 13 0 23 -17 32 -54 l7 -31 1 36 c1 20 8 42 16 49 8 7 13 15 11 19 -3 4
-1 13 4 21 9 15 10 12 9 -65 0 -16 -9 -40 -22 -54 l-22 -24 22 14 c39 23 56
95 34 137 -6 9 -13 35 -16 56 -5 28 -9 36 -15 26 -6 -9 -5 -17 2 -21 9 -6 8
-37 -3 -79 -2 -8 -10 -21 -17 -29 -15 -16 -18 -14 -48 43 -14 25 -14 35 -4 67
19 56 33 37 27 -35 -4 -47 -3 -55 5 -36 6 14 14 32 18 41 6 13 -17 79 -34 97
-3 2 -12 -13 -20 -33z"/>
<path d="M4230 6709 c0 -5 -6 -7 -12 -3 -7 4 -5 -2 5 -13 9 -11 17 -29 17 -41
0 -23 -14 -29 -25 -12 -3 6 -11 10 -17 10 -6 0 -2 -10 10 -23 11 -12 25 -33
30 -46 6 -17 8 0 8 58 0 44 -4 81 -8 81 -4 0 -8 -5 -8 -11z"/>
<path d="M4306 6673 c-4 -9 -4 -14 1 -10 4 5 13 -7 20 -25 l13 -33 -6 35 c-8
43 -19 57 -28 33z"/>
<path d="M4116 6618 c21 -69 40 -89 81 -87 10 0 4 5 -13 10 -36 10 -67 65 -45
79 10 5 8 9 -4 14 -25 9 -27 8 -19 -16z"/>
<path d="M4189 6595 c17 -33 31 -51 31 -40 0 6 -10 21 -21 35 -13 17 -17 18
-10 5z"/>
<path d="M4269 6590 c-1 -5 -2 -16 -3 -22 -1 -7 -7 -19 -14 -27 -8 -8 -10 -22
-6 -35 4 -11 7 -32 6 -46 -2 -21 2 -18 24 18 14 23 29 40 34 37 16 -10 -9 -78
-39 -109 -17 -18 -31 -35 -31 -40 0 -4 17 10 39 33 38 39 56 86 45 116 -9 22
-20 19 -43 -11 l-21 -27 0 29 c1 21 9 34 32 49 17 11 34 26 36 34 2 7 -5 4
-17 -8 -27 -27 -44 -27 -36 -1 3 11 4 20 1 20 -3 0 -7 -4 -7 -10z"/>
<path d="M4134 6486 c-8 -22 26 -87 56 -105 24 -14 24 -14 -3 12 -25 24 -47
65 -47 88 0 15 41 0 70 -24 l25 -21 -25 26 c-32 33 -68 45 -76 24z"/>
<path d="M4236 6417 c3 -10 9 -15 12 -12 3 3 0 11 -7 18 -10 9 -11 8 -5 -6z"/>
<path d="M4291 6345 c-18 -28 -31 -41 -34 -33 -3 7 -6 3 -6 -9 -1 -21 -4 -20
-53 17 -63 47 -78 40 -54 -23 18 -47 49 -87 69 -87 6 0 1 7 -12 16 -21 15 -61
91 -61 116 0 11 67 -36 87 -62 21 -26 27 -61 12 -71 -10 -6 -11 -9 -1 -9 8 0
13 -18 14 -52 1 -33 4 -16 7 42 5 81 10 102 36 145 22 37 30 45 33 32 7 -34
-8 -86 -34 -117 -18 -20 -21 -28 -9 -24 9 4 27 28 40 55 14 26 30 51 35 54 22
13 22 -5 2 -45 -19 -39 -19 -40 -1 -24 19 17 36 80 25 91 -3 3 -15 -2 -26 -12
-20 -18 -20 -17 -20 13 0 44 -15 40 -49 -13z"/>
<path d="M3681 6164 c-6 -15 -10 -29 -7 -31 2 -2 7 6 11 18 l7 22 15 -24 c8
-13 12 -16 9 -6 -3 10 -6 25 -6 33 0 23 -16 16 -29 -12z"/>
<path d="M4345 6162 c-17 -15 -37 -36 -45 -47 -8 -11 8 0 35 24 28 25 52 46
54 48 2 2 0 3 -5 3 -5 -1 -23 -13 -39 -28z"/>
<path d="M4140 6173 c0 -5 14 -16 30 -25 16 -9 39 -32 50 -50 22 -36 26 -33 9
6 -11 24 -89 84 -89 69z"/>
<path d="M4371 6144 c0 -11 3 -14 6 -6 3 7 2 16 -1 19 -3 4 -6 -2 -5 -13z"/>
<path d="M4150 6118 c0 -17 64 -78 81 -78 26 0 43 -68 30 -117 -7 -24 -7 -33
0 -26 5 5 12 32 15 59 5 40 2 54 -15 76 -12 15 -28 25 -35 22 -8 -3 -27 11
-45 33 -17 21 -31 34 -31 31z"/>
<path d="M3698 6093 c-3 -10 -9 -27 -14 -38 -5 -14 1 -11 20 10 l27 30 -5 -45
c-3 -33 -2 -40 5 -27 12 20 8 68 -5 66 -5 0 -12 5 -16 11 -5 8 -9 6 -12 -7z"/>
<path d="M3581 6063 c2 -24 2 -25 6 -6 4 22 5 22 31 6 15 -10 35 -26 45 -37 9
-10 17 -14 17 -8 0 12 -76 72 -92 72 -4 0 -7 -12 -7 -27z"/>
<path d="M4318 6062 c-21 -14 -36 -27 -33 -30 2 -3 11 1 20 8 26 22 19 -59
-10 -116 -14 -27 -18 -40 -9 -29 9 11 22 34 30 52 8 18 23 37 34 43 45 24 13
-70 -37 -110 -23 -18 -24 -20 -3 -8 34 21 60 58 69 101 11 44 5 50 -25 31 -23
-15 -23 -15 -21 19 1 19 9 42 16 51 17 21 14 19 -31 -12z"/>
<path d="M4080 6046 c0 -2 7 -23 15 -46 8 -23 13 -45 12 -49 -2 -3 15 -22 37
-41 36 -30 38 -31 14 -5 -41 46 -74 135 -49 135 4 0 24 -11 44 -24 20 -14 34
-19 31 -11 -9 22 -104 60 -104 41z"/>
<path d="M3590 6023 c0 -5 12 -20 28 -34 l27 -24 -25 30 c-14 17 -26 32 -27
34 -2 2 -3 0 -3 -6z"/>
<path d="M4192 5965 c0 -11 4 -31 8 -45 6 -20 8 -21 8 -5 0 11 -4 31 -8 45 -6
20 -8 21 -8 5z"/>
<path d="M3659 5961 c8 -5 18 -29 21 -53 l7 -43 2 37 c1 47 -7 68 -28 68 -13
0 -14 -2 -2 -9z"/>
<path d="M4040 5958 c0 -31 76 -90 113 -87 7 0 -1 5 -18 11 -34 12 -87 57 -79
69 2 4 0 10 -6 14 -5 3 -10 0 -10 -7z"/>
<path d="M3751 5889 c-13 -10 -19 -19 -15 -19 13 1 48 29 43 34 -2 2 -15 -4
-28 -15z"/>
<path d="M3656 5855 c18 -19 35 -45 37 -57 l4 -23 2 22 c1 21 -52 93 -69 93
-4 0 7 -16 26 -35z"/>
<path d="M3771 5864 c0 -11 3 -14 6 -6 3 7 2 16 -1 19 -3 4 -6 -2 -5 -13z"/>
<path d="M3715 5849 c-4 -6 -5 -12 -2 -15 2 -3 7 2 10 11 7 17 1 20 -8 4z"/>
<path d="M4227 5769 c-6 -96 -12 -115 -28 -86 -28 49 -76 -24 -64 -97 6 -41
53 -126 69 -126 5 0 2 8 -7 18 -22 25 -57 103 -57 130 0 13 7 37 16 53 15 30
16 30 36 12 11 -10 26 -30 32 -44 9 -21 12 -3 14 102 1 71 1 129 -1 129 -2 0
-7 -41 -10 -91z"/>
<path d="M3560 5821 c0 -13 50 -71 60 -71 5 0 -5 14 -22 31 -25 25 -29 33 -17
40 11 7 11 9 -3 9 -10 0 -18 -4 -18 -9z"/>
<path d="M3620 5814 c0 -6 9 -23 20 -37 11 -14 17 -27 13 -30 -5 -2 -3 -3 3
-1 30 7 38 -15 38 -108 0 -57 2 -76 5 -50 l6 43 38 -34 c46 -43 49 -32 3 15
-44 46 -60 122 -30 147 10 9 26 25 34 36 8 11 -2 5 -22 -13 -31 -29 -38 -32
-55 -21 -11 7 -27 24 -36 38 -9 14 -17 21 -17 15z"/>
<path d="M4000 5774 c0 -28 39 -81 83 -116 38 -29 37 -27 -15 29 -32 34 -58
66 -58 72 0 26 54 10 89 -26 21 -22 29 -28 20 -13 -32 49 -119 89 -119 54z"/>
<path d="M4274 5758 l-19 -23 22 19 c22 18 22 18 29 -8 3 -15 4 -44 1 -65 -5
-41 -45 -111 -63 -111 -7 0 -14 -10 -17 -22 -3 -13 -8 -34 -12 -48 -4 -14 2
-7 13 15 10 22 28 48 40 58 11 10 25 31 32 47 11 27 37 46 48 36 13 -14 -15
-64 -68 -121 -76 -82 -78 -94 -4 -18 55 57 98 128 87 146 -3 5 -14 6 -25 4
-17 -5 -19 -2 -14 19 6 21 -16 94 -27 94 -2 0 -12 -10 -23 -22z"/>
<path d="M3582 5692 c31 -15 66 -36 77 -46 18 -16 21 -17 15 -3 -5 15 -123 78
-142 76 -4 0 18 -13 50 -27z"/>
<path d="M3799 5663 c-13 -17 -13 -17 6 -3 11 8 22 16 24 17 2 2 0 3 -6 3 -6
0 -17 -8 -24 -17z"/>
<path d="M4034 5646 c-7 -17 38 -108 68 -137 21 -20 21 -21 3 -14 -11 4 -33 9
-50 12 -26 3 -24 0 15 -18 69 -31 100 -66 100 -110 0 -54 -27 -177 -45 -202
-8 -12 -15 -26 -15 -32 0 -5 9 5 20 23 25 41 40 33 40 -20 l0 -41 26 24 27 24
-7 -30 c-4 -16 -22 -45 -39 -64 l-32 -34 37 27 c26 20 39 38 44 62 7 39 0 54
-18 36 -19 -19 -28 -14 -28 16 0 15 -4 32 -10 38 -6 6 -3 44 10 111 18 92 18
104 4 132 -9 17 -19 31 -24 31 -20 0 -73 56 -95 101 -34 66 -31 75 12 48 20
-13 33 -17 29 -11 -4 7 -21 19 -37 27 -25 14 -30 14 -35 1z m131 -187 c14 -22
-3 -18 -26 7 -23 25 -23 26 -2 15 12 -6 25 -16 28 -22z"/>
<path d="M3589 5637 c16 -21 63 -47 83 -47 7 1 -3 8 -22 16 -19 8 -43 23 -55
32 -19 16 -19 16 -6 -1z"/>
<path d="M3832 5620 c0 -19 2 -27 5 -17 2 9 2 25 0 35 -3 9 -5 1 -5 -18z"/>
<path d="M3612 5571 c-11 -6 -8 -13 10 -33 13 -13 17 -17 11 -8 -7 9 -13 21
-13 27 0 6 6 14 13 16 6 3 8 6 2 6 -5 0 -16 -3 -23 -8z"/>
<path d="M3855 5507 c-14 -24 -25 -55 -24 -68 1 -21 2 -20 8 6 4 17 16 44 27
60 l19 29 4 -24 c3 -25 -37 -110 -51 -110 -5 0 -8 -7 -8 -15 0 -18 -8 -18 -35
-2 -24 14 -28 27 -29 85 -1 25 -6 42 -13 42 -17 0 -26 -19 -15 -33 16 -21 31
-76 21 -79 -11 -4 -15 -90 -5 -106 10 -17 -19 -15 -53 3 -27 13 -60 69 -48 81
3 3 16 0 29 -6 22 -11 22 -11 -2 9 -14 11 -28 21 -32 21 -13 0 -9 -39 7 -71 9
-16 14 -33 11 -38 -8 -12 45 -58 74 -65 17 -5 13 0 -12 14 -21 11 -38 24 -38
29 0 5 17 8 38 7 40 -1 80 -29 86 -61 2 -11 13 -49 24 -85 59 -186 92 -307
108 -384 l17 -85 -27 -67 c-15 -37 -35 -101 -45 -143 l-18 -76 -35 55 c-69
109 -126 226 -142 295 -20 81 -32 101 -52 84 -20 -16 -17 -86 6 -161 21 -69
64 -139 155 -255 l57 -72 -17 -78 c-20 -100 -45 -308 -46 -398 -1 -38 -4 -83
-8 -100 -6 -28 -9 -24 -39 53 -35 89 -54 172 -73 325 -13 108 -30 127 -50 55
-18 -69 2 -149 88 -336 76 -166 76 -167 82 -272 6 -94 7 -82 13 125 4 127 12
273 18 325 15 134 41 270 50 270 10 0 89 -118 119 -177 16 -32 21 -61 21 -115
0 -96 -25 -326 -44 -408 -51 -222 -79 -326 -93 -354 -15 -29 -15 -30 0 -17 35
29 120 360 139 543 9 92 14 110 32 122 35 23 121 154 195 299 93 182 125 322
76 340 -26 10 -42 -20 -48 -90 -14 -151 -72 -317 -154 -440 -88 -132 -83 -139
-83 131 0 215 -13 370 -36 449 -4 14 43 66 188 210 181 179 236 245 288 346
40 79 50 191 17 191 -18 0 -39 -41 -78 -150 -40 -114 -114 -227 -225 -345 -44
-46 -104 -113 -134 -149 -30 -36 -58 -66 -61 -66 -21 -1 -10 61 28 161 61 159
78 222 64 227 -32 11 -52 106 -32 157 7 19 9 18 21 -5 8 -14 17 -45 21 -70 l6
-45 2 47 c1 39 -4 53 -28 80 l-28 32 -8 -50 c-10 -62 -8 -80 17 -126 l21 -36
-48 -136 c-26 -75 -51 -139 -55 -141 -4 -3 -13 23 -19 58 -7 34 -28 114 -46
177 -33 110 -34 118 -21 170 14 61 37 110 60 129 9 8 16 18 16 24 0 24 -50
-39 -75 -95 l-28 -61 -19 49 c-14 37 -16 55 -8 72 15 34 13 47 -6 31 -14 -11
-21 -8 -49 22 -26 29 -31 42 -27 67 2 18 5 32 7 32 20 0 75 -35 80 -51 4 -11
9 -18 12 -16 2 3 0 14 -6 25 -10 19 -5 62 8 62 4 0 15 -13 24 -30 16 -27 17
-32 2 -60 -8 -16 -13 -30 -11 -30 3 0 12 13 21 30 14 28 14 33 -5 71 -20 37
-20 42 -6 64 17 26 22 105 6 105 -5 0 -21 -20 -35 -43z m631 -310 c-17 -57
-79 -167 -102 -180 -8 -5 -12 -12 -10 -16 3 -4 -13 -25 -36 -47 l-41 -39 34
49 c56 80 65 99 104 207 21 57 42 110 49 118 18 23 20 -31 2 -92z m-802 -486
c9 -36 30 -91 47 -124 28 -56 33 -97 9 -82 -15 9 -59 100 -76 154 -15 51 -19
156 -5 131 5 -8 16 -44 25 -79z m296 -111 c0 -11 -14 -41 -31 -68 -33 -50 -33
-47 -4 36 19 53 35 68 35 32z m25 -136 c8 -49 14 -150 14 -224 l0 -135 -40 79
c-22 44 -51 99 -64 122 -14 23 -25 49 -25 57 0 30 87 204 97 194 2 -2 10 -44
18 -93z m325 -7 c-1 -52 -30 -139 -49 -145 -8 -3 -11 0 -8 5 3 5 11 46 16 92
6 45 13 87 16 92 13 19 25 -3 25 -44z m-512 -23 c52 -81 54 -84 48 -84 -11 0
-96 122 -96 138 0 20 2 17 48 -54z m448 -181 c-18 -33 -21 -26 -6 13 6 15 13
24 16 21 3 -3 -1 -18 -10 -34z m-578 -303 c0 -8 -11 17 -23 55 -23 68 -33 164
-17 179 6 7 41 -194 40 -234z"/>
<path d="M3700 5532 c0 -12 19 -26 26 -19 2 2 -2 10 -11 17 -9 8 -15 8 -15 2z"/>
<path d="M3670 5500 c8 -5 24 -10 34 -10 26 0 18 6 -19 14 -22 5 -26 4 -15 -4z"/>
<path d="M3990 5120 c0 -5 7 -7 15 -4 8 4 15 8 15 10 0 2 -7 4 -15 4 -8 0 -15
-4 -15 -10z"/>
<path d="M4001 5083 c-1 -32 9 -52 33 -65 20 -11 21 -10 3 9 -10 12 -22 34
-27 49 -7 24 -8 25 -9 7z"/>
<path d="M4156 5083 c-6 -14 -5 -15 5 -6 7 7 10 15 7 18 -3 3 -9 -2 -12 -12z"/>
</g>
</svg>
