<?xml version="1.0" standalone="no"?>
<!DOCTYPE svg PUBLIC "-//W3C//DTD SVG 20010904//EN"
 "http://www.w3.org/TR/2001/REC-SVG-20010904/DTD/svg10.dtd">
<svg version="1.0" xmlns="http://www.w3.org/2000/svg"
 width="98.000000pt" height="291.000000pt" viewBox="0 0 98.000000 291.000000"
 preserveAspectRatio="xMidYMid meet">

<g transform="translate(0.000000,291.000000) scale(0.100000,-0.100000)"
fill="#000000" stroke="none">
<path d="M520 2890 c-20 -12 -20 -91 0 -114 13 -17 15 -17 32 4 20 25 24 90 6
108 -14 14 -18 15 -38 2z m31 -37 c3 -56 -6 -77 -21 -53 -11 17 -13 64 -3 73
14 14 23 6 24 -20z"/>
<path d="M457 2751 c-7 -27 18 -77 48 -97 22 -15 29 -15 51 -3 44 23 74 109
39 109 -18 0 -55 -35 -55 -52 0 -7 -10 4 -22 25 -23 40 -53 49 -61 18z m46
-35 c5 -15 6 -30 3 -33 -9 -9 -35 29 -36 50 0 27 22 15 33 -17z m81 -20 c-23
-32 -38 -33 -28 -3 10 33 26 49 37 38 6 -6 2 -19 -9 -35z"/>
<path d="M522 2608 c-7 -7 -12 -19 -12 -27 0 -14 2 -14 10 -1 7 11 11 9 19
-13 13 -34 14 -57 1 -77 -7 -12 -10 -11 -15 5 -33 100 -105 152 -105 77 0 -34
53 -112 80 -119 11 -3 22 -20 28 -41 10 -36 10 -36 11 -8 1 18 12 42 29 59 19
21 22 28 10 24 -21 -7 -22 -2 -7 44 17 50 68 85 56 38 -4 -15 -3 -19 4 -12 14
14 8 45 -8 50 -7 3 -23 -7 -36 -21 -29 -31 -37 -33 -30 -8 6 25 -19 46 -35 30z
m-50 -50 c40 -79 40 -78 24 -78 -18 0 -70 85 -61 100 10 17 20 11 37 -22z"/>
<path d="M496 2344 c-3 -9 -6 -27 -6 -42 l0 -26 -28 34 c-21 24 -33 32 -47 27
-14 -6 -16 -15 -12 -44 7 -40 34 -74 90 -109 l37 -24 -1 -83 c0 -66 -2 -78
-11 -59 -14 28 -36 28 -47 0 -5 -14 -10 -17 -15 -10 -10 16 -43 15 -49 -1 -9
-25 29 -92 77 -134 l46 -41 -1 -663 -1 -664 -33 103 c-37 116 -129 285 -222
408 -32 42 -68 92 -81 110 -25 37 -42 44 -42 16 0 -38 91 -286 137 -374 30
-56 74 -120 117 -167 126 -139 120 -121 127 -375 7 -242 6 -226 17 -226 4 0 5
91 4 203 -2 129 0 219 7 245 9 30 36 67 99 135 48 53 107 129 131 172 38 65
122 292 145 388 9 39 -11 34 -37 -10 -12 -21 -44 -72 -72 -113 -197 -291 -231
-347 -249 -420 -9 -36 -20 -68 -24 -72 -4 -4 -7 111 -6 255 4 1077 3 1067 18
1067 18 0 76 49 59 50 -6 0 -15 -4 -18 -10 -16 -26 -22 -5 -9 36 21 72 69 101
59 37 -6 -38 -6 -38 9 -13 33 54 6 100 -34 60 -25 -25 -30 -25 -30 0 0 27 -28
37 -43 16 -10 -14 -12 -2 -13 62 -1 77 -1 80 27 96 33 20 39 41 9 33 -11 -3
-20 0 -20 6 0 16 50 97 60 97 19 0 21 -22 5 -46 -9 -14 -15 -30 -13 -35 2 -6
14 8 27 31 26 47 22 70 -13 70 -19 0 -29 -10 -48 -47 l-23 -48 -3 35 c-4 62
-12 80 -31 80 -10 0 -22 -7 -25 -16z m35 -21 c6 -76 6 -114 -1 -118 -16 -10
-33 67 -24 108 6 30 23 37 25 10z m-56 -70 c15 -24 24 -47 21 -50 -11 -12 -76
68 -76 94 0 21 2 23 15 13 8 -6 26 -32 40 -57z m44 -262 c7 -15 11 -48 9 -72
l-3 -44 -23 59 c-22 57 -23 86 -4 86 5 0 15 -13 21 -29z m60 -46 c-13 -72 -29
-81 -29 -16 0 59 17 104 30 80 5 -8 4 -36 -1 -64z m-102 -4 c15 -34 19 -51 11
-49 -21 7 -71 85 -63 98 12 20 29 5 52 -49z m-210 -946 c100 -134 219 -362
200 -381 -3 -3 -18 19 -34 48 -55 98 -177 297 -181 293 -2 -2 24 -52 59 -112
81 -139 138 -246 139 -257 0 -17 -61 47 -95 99 -76 116 -111 193 -146 317 -10
37 -19 70 -19 73 0 17 22 -6 77 -80z m593 -27 c-17 -51 -51 -130 -75 -175 -43
-81 -122 -193 -137 -193 -4 0 -16 -10 -28 -22 -33 -36 -23 -11 19 46 42 56
156 278 122 236 -11 -14 -30 -44 -40 -67 -11 -23 -43 -76 -71 -118 -43 -66
-49 -73 -44 -44 8 38 119 224 188 312 25 32 55 74 67 93 12 19 23 33 26 31 2
-3 -10 -47 -27 -99z"/>
<path d="M874 1966 c-9 -16 -14 -41 -13 -66 2 -25 -2 -44 -9 -49 -10 -6 -10
-11 3 -21 18 -15 19 -39 1 -62 -19 -26 -26 -22 -26 16 0 39 -39 94 -58 82 -25
-15 -13 -77 28 -142 9 -14 11 -35 6 -68 -9 -56 -13 -55 -29 10 -13 55 -34 64
-54 25 -9 -20 -9 -32 3 -60 8 -20 21 -41 29 -47 8 -6 15 -24 15 -40 l0 -29 13
25 c7 13 21 27 32 30 42 11 85 53 85 82 0 32 -10 35 -46 12 -30 -20 -34 -17
-27 18 4 20 13 29 34 33 34 8 89 56 89 79 0 21 -28 32 -43 17 -6 -6 -15 -11
-19 -11 -15 0 -8 52 11 78 34 50 37 112 5 112 -7 0 -21 -11 -30 -24z m36 -10
c0 -8 -5 -27 -11 -43 -8 -21 -12 -24 -19 -14 -4 8 -6 20 -4 28 2 7 6 20 9 28
6 19 25 20 25 1z m-104 -151 c7 -39 -2 -58 -16 -35 -13 20 -13 70 0 70 5 0 12
-16 16 -35z m124 -13 c0 -14 -48 -54 -60 -50 -7 2 -1 14 14 31 24 26 46 35 46
19z m-165 -152 c7 -40 6 -43 -8 -32 -18 16 -32 66 -22 83 11 17 22 -2 30 -51z
m115 5 c0 -18 -44 -65 -60 -65 -6 0 4 18 21 40 36 45 39 47 39 25z"/>
<path d="M289 1840 c-9 -5 -24 -22 -34 -37 l-18 -28 25 23 c60 55 148 7 148
-81 0 -23 -6 -53 -13 -67 -18 -34 -27 -60 -22 -60 14 0 55 105 55 140 0 71
-90 141 -141 110z"/>
<path d="M37 1812 c-20 -22 -37 -67 -37 -98 0 -47 52 -127 146 -224 85 -88 95
-102 115 -166 22 -71 109 -267 116 -260 2 2 -7 30 -21 62 -13 33 -38 91 -54
130 -40 95 -48 148 -28 179 24 36 19 40 -8 8 l-24 -27 -86 89 c-120 124 -158
207 -123 275 27 53 92 40 148 -30 35 -43 46 -49 46 -24 0 18 -53 77 -84 93
-33 17 -88 14 -106 -7z"/>
<path d="M350 1560 c-6 -11 -8 -20 -6 -20 3 0 10 9 16 20 6 11 8 20 6 20 -3 0
-10 -9 -16 -20z"/>
<path d="M640 1505 c-17 -20 -5 -75 25 -116 50 -69 50 -67 15 -190 -73 -254
-111 -435 -109 -510 0 -24 0 -24 9 -2 5 12 12 50 15 85 4 35 36 174 73 311 61
230 67 247 88 247 13 0 36 12 51 26 l28 25 -27 -16 c-45 -28 -51 -12 -13 33
41 47 71 57 60 20 -6 -18 -4 -20 5 -12 14 14 10 56 -6 61 -6 2 -25 -8 -42 -22
l-31 -26 9 30 c10 36 -7 65 -32 56 -9 -4 -23 -23 -29 -43 l-12 -37 -8 29 c-8
28 -36 66 -49 66 -4 0 -13 -7 -20 -15z m50 -56 c6 -22 9 -50 7 -62 -3 -18 -8
-13 -25 26 -26 57 -28 77 -7 77 8 0 19 -17 25 -41z m80 7 c0 -32 -20 -86 -32
-86 -10 0 -5 46 8 93 8 25 24 21 24 -7z"/>
<path d="M416 954 c19 -54 38 -101 41 -104 9 -9 -9 54 -35 120 -40 104 -45 93
-6 -16z"/>
</g>
</svg>
