<?xml version="1.0" standalone="no"?>
<!DOCTYPE svg PUBLIC "-//W3C//DTD SVG 20010904//EN"
 "http://www.w3.org/TR/2001/REC-SVG-20010904/DTD/svg10.dtd">
<svg version="1.0" xmlns="http://www.w3.org/2000/svg"
 width="800.000000pt" height="600.000000pt" viewBox="0 0 800.000000 600.000000"
 preserveAspectRatio="xMidYMid meet">

<g transform="translate(0.000000,600.000000) scale(0.100000,-0.100000)"
fill="#000000" stroke="none">
<path d="M3980 4480 c-20 -12 -20 -91 0 -114 13 -17 15 -17 32 4 20 25 24 90
6 108 -14 14 -18 15 -38 2z m30 -55 c0 -45 -12 -60 -24 -29 -8 21 -8 59 1 67
16 16 23 4 23 -38z"/>
<path d="M3917 4341 c-12 -48 50 -120 93 -106 42 13 82 115 45 115 -18 0 -55
-35 -55 -52 0 -7 -10 4 -22 25 -23 40 -53 49 -61 18z m46 -35 c5 -15 6 -30 3
-33 -9 -9 -35 29 -36 50 0 27 22 15 33 -17z m92 8 c0 -14 -34 -59 -40 -53 -9
10 17 70 29 66 6 -2 11 -8 11 -13z"/>
<path d="M3982 4198 c-7 -7 -12 -19 -11 -27 0 -11 2 -12 6 -3 9 23 20 12 27
-29 10 -60 -6 -79 -27 -32 -27 60 -61 97 -82 90 -14 -6 -16 -15 -12 -43 7 -41
51 -104 78 -111 10 -3 22 -21 27 -41 10 -36 10 -36 11 -8 1 18 12 42 29 59 19
21 22 28 10 24 -22 -8 -22 3 -3 50 24 56 62 75 51 26 -5 -26 -5 -26 6 -6 12
24 5 53 -12 53 -6 0 -22 -12 -35 -26 -23 -25 -25 -25 -25 -7 0 28 -23 46 -38
31z m-39 -73 c21 -42 23 -55 12 -55 -17 0 -69 85 -60 100 12 19 21 10 48 -45z"/>
<path d="M3956 3934 c-3 -9 -6 -27 -6 -42 l0 -26 -28 34 c-21 24 -33 32 -47
27 -14 -6 -16 -15 -12 -44 7 -40 34 -74 90 -109 l37 -24 -1 -83 c0 -66 -2 -78
-11 -59 -14 28 -36 28 -47 0 -5 -14 -10 -17 -15 -10 -9 14 -42 16 -51 3 -12
-20 29 -93 76 -135 l49 -44 -1 -664 -1 -663 -33 101 c-44 138 -139 310 -251
451 -27 35 -56 73 -65 84 -8 12 -20 20 -27 18 -17 -6 77 -280 134 -389 31 -58
75 -122 118 -169 126 -139 120 -121 126 -372 3 -125 9 -222 15 -228 7 -7 9 59
7 197 -3 133 0 223 7 249 8 30 36 68 100 137 48 53 107 131 131 172 37 65 121
291 144 387 12 50 -14 26 -73 -66 -31 -48 -87 -135 -126 -192 -123 -183 -142
-219 -159 -285 -9 -36 -20 -68 -24 -72 -4 -4 -6 129 -6 295 1 166 2 465 3 665
1 308 3 362 15 362 18 0 76 49 59 50 -6 0 -15 -4 -18 -10 -16 -26 -22 -5 -9
36 22 72 71 102 60 37 -6 -37 -6 -38 8 -13 32 54 6 100 -34 60 -25 -25 -30
-25 -30 0 0 28 -28 37 -44 15 -10 -14 -12 -4 -13 63 0 77 0 80 28 96 33 20 39
41 9 33 -11 -3 -20 0 -20 6 0 16 50 97 60 97 19 0 21 -22 5 -46 -9 -14 -15
-30 -12 -37 2 -6 13 10 26 36 24 49 22 67 -8 67 -22 0 -45 -25 -62 -65 l-13
-30 -3 35 c-6 63 -13 80 -32 80 -10 0 -22 -7 -25 -16z m42 -77 c5 -68 -13 -85
-28 -26 -13 47 -4 107 13 90 6 -6 12 -35 15 -64z m-63 -14 c15 -24 24 -47 21
-50 -11 -12 -76 68 -76 94 0 21 2 23 15 13 8 -6 26 -32 40 -57z m54 -318 c1
-30 -1 -55 -3 -55 -10 0 -47 114 -41 128 5 13 8 12 24 -2 13 -11 18 -32 20
-71z m50 10 c-13 -72 -29 -81 -29 -16 0 59 17 104 30 80 5 -8 4 -36 -1 -64z
m-102 -4 c15 -34 19 -51 11 -49 -21 7 -71 85 -63 98 12 20 29 5 52 -49z m-210
-946 c100 -134 219 -362 200 -381 -3 -3 -18 19 -34 48 -49 87 -177 297 -180
294 -4 -3 46 -94 129 -237 30 -52 59 -106 63 -120 7 -23 6 -23 -25 6 -52 48
-132 178 -170 275 -19 48 -60 181 -60 195 0 17 22 -6 77 -80z m593 -27 c-17
-51 -51 -130 -75 -175 -43 -81 -122 -193 -137 -193 -4 0 -19 -12 -34 -27 -31
-33 -27 -26 46 87 50 77 136 240 126 240 -4 0 -47 -70 -81 -135 -12 -22 -41
-69 -64 -104 -37 -58 -41 -61 -35 -30 8 38 119 224 188 312 25 32 55 74 67 93
12 19 23 33 26 31 2 -3 -10 -47 -27 -99z"/>
<path d="M4334 3556 c-9 -16 -14 -41 -13 -66 2 -25 -2 -44 -9 -49 -10 -6 -10
-11 3 -21 18 -15 19 -39 1 -62 -19 -26 -26 -22 -26 16 0 41 -39 94 -60 81 -18
-11 -7 -87 19 -123 21 -31 26 -80 11 -117 -7 -18 -8 -17 -15 10 -20 87 -38
103 -62 56 -14 -28 4 -82 37 -113 11 -11 17 -26 13 -40 -4 -22 -4 -22 9 2 7
13 22 27 33 30 42 11 85 53 85 82 0 32 -10 35 -46 12 -30 -20 -34 -17 -27 17
4 20 14 29 43 38 39 12 80 52 80 78 0 19 -29 28 -43 14 -6 -6 -15 -11 -19 -11
-15 0 -8 52 11 78 34 50 37 112 5 112 -7 0 -21 -11 -30 -24z m31 -28 c-8 -37
-24 -60 -26 -37 -3 38 6 69 21 69 8 0 9 -11 5 -32z m-101 -120 c3 -13 6 -34 6
-48 -1 -24 -1 -24 -15 -6 -16 21 -20 76 -6 76 5 0 11 -10 15 -22z m126 -26 c0
-14 -48 -54 -60 -50 -7 2 -1 14 14 31 24 26 46 35 46 19z m-165 -152 c7 -40 6
-43 -8 -32 -18 16 -32 66 -22 83 11 17 22 -2 30 -51z m115 5 c0 -18 -48 -70
-57 -61 -6 5 43 76 53 76 2 0 4 -7 4 -15z"/>
<path d="M3748 3429 c-10 -5 -23 -20 -29 -32 -12 -21 -11 -21 8 -4 11 9 35 17
55 17 72 0 113 -97 73 -174 -8 -15 -15 -33 -15 -40 1 -6 12 9 25 34 36 67 33
122 -7 164 -35 37 -82 52 -110 35z"/>
<path d="M3497 3402 c-21 -23 -37 -67 -37 -101 0 -43 64 -139 155 -231 77 -77
86 -91 106 -155 22 -73 109 -268 116 -261 3 2 -21 64 -52 138 -39 91 -57 148
-58 181 -2 35 -6 46 -15 42 -17 -6 -164 142 -197 199 -48 81 -40 172 15 186
34 9 73 -12 111 -60 35 -43 46 -49 46 -24 0 18 -53 77 -84 93 -33 17 -88 14
-106 -7z"/>
<path d="M3810 3150 c-6 -11 -8 -20 -6 -20 3 0 10 9 16 20 6 11 8 20 6 20 -3
0 -10 -9 -16 -20z"/>
<path d="M4100 3095 c-19 -22 -4 -77 36 -135 l36 -52 -18 -71 c-9 -40 -23 -90
-31 -112 -40 -114 -94 -376 -92 -446 0 -24 0 -24 9 -2 5 12 12 50 16 85 6 59
28 150 102 425 35 129 37 133 62 133 10 0 32 12 47 26 l28 25 -27 -16 c-45
-28 -51 -12 -13 33 40 46 67 56 57 20 -3 -14 -2 -19 6 -14 15 9 16 53 2 61 -6
4 -26 -5 -45 -19 l-34 -26 9 29 c10 36 -7 65 -32 56 -9 -4 -23 -23 -29 -43
l-12 -37 -8 29 c-8 28 -36 66 -49 66 -4 0 -13 -7 -20 -15z m46 -40 c16 -38 19
-99 5 -90 -15 9 -44 93 -38 110 9 23 17 18 33 -20z m84 -9 c0 -32 -20 -86 -32
-86 -10 0 -5 46 8 93 8 25 24 21 24 -7z"/>
<path d="M3854 2610 c22 -73 59 -170 63 -167 5 6 -35 124 -53 157 -8 14 -13
18 -10 10z"/>
</g>
</svg>
