<?xml version="1.0" standalone="no"?>
<!DOCTYPE svg PUBLIC "-//W3C//DTD SVG 20010904//EN"
 "http://www.w3.org/TR/2001/REC-SVG-20010904/DTD/svg10.dtd">
<svg version="1.0" xmlns="http://www.w3.org/2000/svg"
 width="735.000000pt" height="1102.000000pt" viewBox="0 0 735.000000 1102.000000"
 preserveAspectRatio="xMidYMid meet">

<g transform="translate(0.000000,1102.000000) scale(0.100000,-0.100000)"
fill="#000000" stroke="none">
<path d="M2760 7617 c0 -12 85 -98 155 -159 11 -9 25 -23 30 -30 6 -7 28 -34
49 -61 37 -45 39 -51 40 -126 2 -65 7 -86 27 -116 22 -33 163 -136 245 -178
17 -9 43 -32 57 -51 49 -63 168 -168 243 -213 17 -10 53 -33 80 -50 27 -18 65
-35 84 -38 19 -4 53 -13 75 -21 23 -8 69 -14 103 -14 104 0 144 -27 162 -106
l7 -31 -56 -6 c-31 -4 -83 -16 -116 -27 -77 -27 -179 -23 -320 13 -167 44
-347 85 -410 94 -74 12 -286 8 -340 -5 -143 -36 -199 -53 -267 -86 -42 -20
-80 -36 -84 -36 -20 0 -152 -100 -205 -156 -97 -100 -245 -335 -294 -464 -30
-81 -44 -197 -34 -292 17 -167 17 -182 -2 -255 -11 -41 -40 -114 -65 -164 -38
-74 -45 -95 -40 -124 16 -83 85 -120 246 -129 128 -7 197 -27 310 -89 115 -64
158 -83 230 -103 153 -42 385 -18 648 67 68 21 128 39 134 39 6 0 19 7 28 15
16 14 22 8 75 -77 126 -202 128 -205 236 -296 112 -94 263 -177 394 -214 69
-20 101 -23 235 -22 99 1 183 7 232 18 42 9 102 16 132 16 36 0 83 11 140 31
71 26 97 42 145 88 71 69 176 209 208 278 38 82 71 295 43 278 -5 -3 -9 -16
-9 -28 1 -25 -26 -172 -37 -202 -15 -41 -98 -162 -157 -228 -121 -137 -204
-174 -423 -189 -131 -9 -164 -8 -234 6 -110 22 -195 63 -298 143 -167 130
-250 228 -294 346 -10 29 -27 70 -38 92 -45 97 -52 327 -15 489 42 181 47 199
72 249 13 26 21 47 18 47 -3 0 18 34 46 75 29 41 55 75 59 75 4 0 19 17 34 38
15 22 39 45 54 52 15 8 42 25 59 37 60 44 197 102 263 113 75 11 213 3 250
-15 14 -7 52 -39 85 -71 33 -31 105 -96 160 -143 165 -143 195 -178 239 -283
22 -51 57 -128 79 -172 48 -98 77 -208 78 -300 2 -114 17 -136 18 -26 1 63 -6
121 -18 170 -16 64 -107 276 -178 415 -20 38 -131 147 -258 252 -83 69 -125
111 -125 124 0 14 -23 33 -75 61 -37 20 -54 22 -215 21 -161 -1 -180 -3 -245
-27 -38 -14 -71 -23 -73 -21 -2 2 1 12 6 22 5 10 22 74 37 141 29 132 29 205
0 262 -11 21 -12 36 -5 61 15 52 12 101 -9 135 -17 28 -17 35 -5 95 22 103 18
240 -10 334 -25 85 -77 190 -106 216 -9 8 -21 25 -24 37 -4 12 -30 43 -58 69
-28 27 -64 61 -79 78 -19 19 -29 24 -29 15 0 -8 28 -42 62 -75 66 -64 90 -93
134 -165 15 -25 30 -47 34 -50 3 -3 19 -45 35 -95 36 -112 44 -240 21 -329 -9
-32 -17 -61 -19 -63 -2 -2 -14 18 -27 44 -67 141 -84 168 -155 243 -20 22 -22
31 -15 73 4 27 3 67 -1 90 -4 23 -8 45 -9 50 0 4 -5 7 -11 7 -7 0 -9 -22 -7
-62 3 -35 2 -73 -1 -86 -5 -20 -8 -21 -24 -10 -13 10 -21 35 -27 85 -18 139
-61 205 -244 366 -36 32 -66 65 -66 73 0 8 -4 14 -10 14 -5 0 -10 -9 -10 -20
0 -22 55 -80 152 -160 37 -30 67 -59 67 -64 1 -6 10 -19 21 -31 23 -24 56
-112 66 -174 8 -51 -6 -53 -56 -11 -19 17 -40 30 -46 30 -7 0 -14 4 -16 8 -1
5 -30 26 -63 47 -33 21 -94 67 -136 101 -42 35 -80 60 -83 57 -3 -4 -6 -2 -6
3 0 5 -23 33 -50 62 -28 29 -66 78 -85 108 -37 57 -51 68 -40 32 20 -67 79
-138 210 -255 56 -51 65 -63 47 -63 -52 0 -287 132 -369 207 -14 13 -30 22
-36 20 -17 -5 71 -83 175 -152 110 -74 194 -109 283 -119 42 -5 67 -14 85 -30
14 -12 41 -32 61 -43 37 -21 200 -145 196 -150 -2 -1 -21 4 -42 12 -22 8 -52
14 -67 15 -45 0 -221 38 -265 56 -7 3 -13 -1 -13 -9 0 -22 64 -44 195 -68 235
-42 265 -58 331 -177 36 -65 76 -163 69 -170 -2 -2 -16 5 -31 15 -20 13 -56
20 -123 24 -157 10 -218 34 -381 146 -70 49 -168 140 -186 174 -7 15 -37 41
-66 59 -229 143 -248 162 -254 268 -6 96 -41 149 -191 295 -24 22 -41 42 -40
43 12 12 531 24 570 13 20 -6 27 -4 27 7 0 8 -3 15 -7 15 -36 6 -60 5 -70 -3
-7 -6 -14 -5 -18 2 -9 14 -127 10 -137 -5 -5 -6 -8 -5 -8 3 0 10 -5 10 -21 1
-14 -7 -24 -7 -28 -1 -9 15 -190 16 -207 1 -10 -8 -18 -9 -22 -3 -4 5 -27 10
-52 9 -25 0 -57 3 -72 8 -21 5 -28 4 -28 -6z m1400 -1133 c11 -33 6 -93 -7
-80 -3 3 -10 25 -14 48 -4 24 -11 54 -15 68 -7 22 -6 24 9 12 9 -8 21 -29 27
-48z m-855 -34 c22 -5 74 -18 115 -29 220 -58 272 -70 349 -82 74 -12 90 -11
145 4 176 50 198 52 210 21 3 -8 12 -14 20 -14 15 0 30 -37 41 -101 9 -51 -8
-134 -63 -308 -16 -51 -20 -55 -82 -85 -88 -43 -185 -109 -217 -147 -42 -50
-93 -139 -120 -209 -14 -36 -28 -69 -32 -75 -4 -5 -27 -55 -51 -110 -64 -149
-96 -211 -156 -295 -69 -98 -76 -137 -39 -210 15 -29 23 -56 18 -60 -16 -16
-251 -90 -348 -111 -62 -13 -155 -22 -243 -25 -126 -5 -151 -3 -210 16 -79 25
-97 33 -179 82 -110 66 -233 108 -315 108 -26 0 -50 5 -54 11 -3 6 -37 31 -74
55 -80 52 -94 83 -62 137 11 17 32 67 47 111 29 87 33 147 16 289 -10 88 -1
228 18 272 61 141 92 200 150 289 18 28 39 63 46 77 24 45 156 179 219 221
110 74 327 157 471 181 45 8 334 -2 380 -13z m900 -567 c-84 -43 -212 -155
-278 -243 -37 -51 -85 -167 -102 -252 -8 -40 -23 -113 -34 -163 -19 -91 -19
-132 -5 -342 5 -84 12 -114 35 -164 16 -33 29 -68 29 -78 0 -16 76 -135 122
-190 108 -127 367 -301 450 -301 10 0 18 -3 18 -8 0 -8 -131 -5 -188 4 -23 4
-36 12 -42 30 -5 13 -13 24 -17 24 -5 0 -28 18 -53 40 -25 22 -48 40 -52 40
-14 0 -9 -19 10 -38 9 -10 28 -31 42 -47 l25 -27 -25 7 c-37 10 -220 97 -220
105 0 3 -14 25 -32 49 -28 39 -33 42 -44 26 -12 -16 -15 -15 -49 11 -20 15
-34 33 -31 40 6 15 -19 80 -34 89 -6 3 -13 -1 -16 -10 -4 -10 4 -27 22 -46 15
-16 23 -29 18 -29 -15 0 -114 116 -114 134 0 3 -14 26 -32 52 -18 26 -33 64
-35 83 -4 49 -10 61 -30 61 -20 0 -93 63 -93 80 0 6 5 8 10 5 16 -10 12 34 -7
65 -16 28 -16 29 31 92 26 34 65 99 86 143 84 176 132 282 152 330 64 158 115
231 204 291 66 43 300 164 318 164 6 -1 -11 -13 -39 -27z"/>
<path d="M2993 6413 c-27 -5 -30 -18 -7 -27 45 -17 149 -2 117 17 -14 8 -87
15 -110 10z"/>
<path d="M3168 6383 c-33 -8 -18 -21 30 -25 56 -5 67 -1 51 18 -11 14 -45 17
-81 7z"/>
<path d="M3350 6380 c0 -5 17 -12 38 -16 20 -3 55 -10 77 -14 64 -14 61 7 -4
29 -41 13 -111 15 -111 1z"/>
<path d="M2743 6363 c-22 -4 -37 -28 -27 -44 4 -6 10 -6 17 -1 7 6 31 13 55
17 26 4 42 12 42 21 0 14 -36 17 -87 7z"/>
<path d="M4077 6328 c-11 -38 -8 -70 5 -66 20 7 30 61 14 76 -11 11 -14 10
-19 -10z"/>
<path d="M2929 6301 c-32 -26 -21 -34 35 -26 46 7 61 27 30 39 -26 10 -41 7
-65 -13z"/>
<path d="M3637 6308 c-26 -14 -11 -28 29 -28 23 0 34 4 32 12 -6 17 -42 27
-61 16z"/>
<path d="M2666 6295 c-17 -17 -21 -35 -8 -35 18 0 62 26 59 35 -6 17 -34 17
-51 0z"/>
<path d="M3193 6293 c-42 -8 -24 -23 28 -23 36 0 49 4 47 13 -5 13 -39 18 -75
10z"/>
<path d="M3740 6280 c-13 -8 -13 -9 0 -14 8 -2 30 -9 49 -15 44 -14 49 -9 15
18 -29 23 -42 25 -64 11z"/>
<path d="M3520 6257 c0 -13 40 -37 60 -37 20 0 9 20 -20 35 -36 18 -40 19 -40
2z"/>
<path d="M3970 6235 c0 -14 7 -28 15 -32 23 -8 27 1 16 31 -13 33 -31 34 -31
1z"/>
<path d="M2570 6230 c0 -23 8 -25 32 -6 20 15 14 26 -14 26 -11 0 -18 -7 -18
-20z"/>
<path d="M2754 6225 c-9 -21 -4 -24 29 -18 32 6 31 26 -1 31 -13 2 -25 -3 -28
-13z"/>
<path d="M3866 6231 c-7 -11 91 -117 100 -108 9 8 -22 55 -59 90 -32 30 -34
31 -41 18z"/>
<path d="M3170 6175 c0 -8 9 -15 20 -15 11 0 20 7 20 15 0 8 -9 15 -20 15 -11
0 -20 -7 -20 -15z"/>
<path d="M4081 6154 c-19 -52 2 -70 23 -19 15 35 14 55 -3 55 -4 0 -13 -16
-20 -36z"/>
<path d="M2393 6165 c-20 -14 -36 -49 -26 -59 3 -3 18 5 34 18 16 13 34 26 40
28 15 5 3 28 -14 28 -7 0 -22 -7 -34 -15z"/>
<path d="M2928 6156 c-28 -21 -23 -39 10 -31 33 8 46 20 38 34 -9 15 -27 13
-48 -3z"/>
<path d="M3026 6143 c-4 -9 -3 -20 2 -25 11 -11 47 16 38 30 -11 17 -33 15
-40 -5z"/>
<path d="M2477 6105 c-25 -24 -37 -55 -19 -55 17 1 75 58 68 68 -10 17 -18 15
-49 -13z"/>
<path d="M2618 6119 c-17 -10 -25 -39 -11 -39 22 0 73 26 73 37 0 15 -38 17
-62 2z"/>
<path d="M4050 6000 c0 -13 5 -20 13 -17 6 2 12 10 12 17 0 7 -6 15 -12 18 -8
2 -13 -5 -13 -18z"/>
<path d="M2251 5935 c-25 -47 -25 -60 1 -50 16 7 50 74 42 87 -10 16 -19 8
-43 -37z"/>
<path d="M2352 5900 c-13 -22 -16 -60 -4 -60 8 0 42 57 42 71 0 16 -25 9 -38
-11z"/>
<path d="M2099 5586 c-8 -17 -9 -33 -3 -47 9 -19 11 -18 26 14 15 31 15 37 3
47 -12 10 -17 7 -26 -14z"/>
<path d="M2126 5403 c-7 -24 5 -42 25 -43 8 0 19 52 12 62 -10 17 -31 6 -37
-19z"/>
<path d="M2066 5172 c-7 -11 -2 -90 6 -98 3 -2 8 17 12 43 6 45 -4 77 -18 55z"/>
<path d="M1980 4999 c0 -23 45 -87 55 -77 7 6 -36 88 -46 88 -5 0 -9 -5 -9
-11z"/>
<path d="M2140 4994 c0 -16 23 -44 35 -44 20 0 19 13 -3 33 -19 17 -32 22 -32
11z"/>
<path d="M2110 4900 c0 -11 40 -50 51 -50 4 0 14 -3 23 -6 31 -12 15 14 -24
40 -43 29 -50 31 -50 16z"/>
<path d="M2350 4841 c0 -11 48 -51 61 -51 21 0 7 31 -21 45 -34 17 -40 18 -40
6z"/>
<path d="M2854 4799 c-3 -5 -2 -13 1 -19 12 -19 99 -6 92 14 -4 13 -85 18 -93
5z"/>
<path d="M3063 4803 c-20 -4 -39 -30 -28 -41 9 -10 70 14 70 28 0 15 -11 19
-42 13z"/>
<path d="M2556 4765 c3 -8 14 -17 25 -20 10 -3 28 -8 39 -11 14 -4 20 -1 20
10 0 9 -15 19 -37 25 -50 14 -53 14 -47 -4z"/>
<path d="M3298 4769 c-16 -9 -26 -39 -14 -39 20 0 56 22 56 35 0 17 -17 19
-42 4z"/>
<path d="M3088 4724 c-36 -19 -36 -34 0 -34 31 0 75 27 67 41 -9 13 -36 10
-67 -7z"/>
<path d="M2782 4711 c-47 -9 -40 -26 10 -26 33 0 44 4 46 18 4 18 -1 19 -56 8z"/>
<path d="M3686 5269 c-9 -45 -7 -69 4 -69 12 0 33 77 25 90 -11 18 -22 10 -29
-21z"/>
<path d="M3620 5086 c0 -19 4 -38 10 -41 12 -7 24 39 16 60 -10 27 -26 16 -26
-19z"/>
<path d="M3550 4986 c0 -19 5 -38 11 -41 14 -9 17 -5 21 35 2 26 -1 35 -14 38
-15 3 -18 -4 -18 -32z"/>
<path d="M3590 4691 c0 -19 23 -71 31 -71 12 0 11 37 -1 61 -11 19 -30 26 -30
10z"/>
<path d="M3720 4618 c1 -7 9 -28 19 -47 23 -43 37 -24 17 24 -14 34 -36 48
-36 23z"/>
<path d="M3650 4600 c0 -18 30 -70 40 -70 14 0 12 21 -2 53 -13 26 -38 37 -38
17z"/>
<path d="M3820 4561 c0 -15 47 -81 53 -75 6 6 -30 71 -44 80 -5 3 -9 1 -9 -5z"/>
<path d="M3800 4450 c19 -38 40 -53 40 -30 0 22 -31 70 -45 70 -13 0 -12 -7 5
-40z"/>
<path d="M3876 4422 c-3 -5 11 -31 31 -57 41 -52 57 -45 24 9 -26 41 -47 60
-55 48z"/>
<path d="M3990 4304 c0 -18 62 -84 79 -84 21 0 11 20 -29 60 -44 44 -50 47
-50 24z"/>
<path d="M3454 7578 c-5 -8 0 -9 14 -6 12 4 22 3 22 -1 0 -6 60 -32 86 -37 6
-1 22 -5 35 -9 22 -7 22 -6 10 9 -8 9 -20 15 -26 12 -7 -2 -24 2 -39 9 -14 8
-26 12 -26 9 0 -3 -10 2 -22 10 -27 19 -44 20 -54 4z"/>
<path d="M3650 7509 c0 -6 5 -9 12 -7 6 2 21 -5 32 -16 15 -15 21 -17 24 -6 6
16 -24 40 -50 40 -10 0 -18 -5 -18 -11z"/>
<path d="M3760 7447 c77 -52 90 -59 90 -49 0 17 -42 52 -62 52 -10 0 -18 5
-18 10 0 6 -10 10 -22 10 -20 0 -18 -3 12 -23z"/>
<path d="M4482 5823 c-13 -3 -28 -16 -34 -29 -17 -37 3 -178 52 -370 23 -87
43 -188 46 -224 8 -103 14 -130 28 -130 8 0 19 -13 25 -30 5 -16 14 -30 20
-30 5 0 12 -9 16 -19 3 -11 13 -22 22 -25 30 -12 432 -17 472 -6 53 14 66 48
57 143 -4 40 -11 86 -16 102 -5 17 -17 54 -26 83 -20 66 -74 122 -117 122 -24
0 -27 2 -18 14 8 10 9 20 2 33 -5 10 -17 39 -26 65 -34 96 -102 161 -144 138
-10 -5 -31 -40 -46 -77 -15 -38 -30 -72 -35 -78 -4 -5 -26 -61 -48 -123 -47
-127 -92 -226 -99 -218 -5 4 54 230 77 296 15 42 50 222 50 255 0 43 -32 70
-109 95 -61 19 -99 22 -149 13z m152 -42 l29 -12 -7 -74 c-6 -61 -4 -75 7 -75
16 0 27 42 27 102 0 46 23 49 28 4 4 -33 -31 -201 -63 -306 -13 -41 -33 -115
-46 -165 -12 -49 -25 -94 -29 -98 -4 -5 -10 20 -14 55 -8 67 -51 250 -66 278
-5 9 -16 74 -25 144 -16 122 -16 128 2 148 15 17 26 19 73 15 30 -3 68 -10 84
-16z m281 -174 c33 -33 65 -115 65 -167 0 -17 -14 -39 -41 -65 -23 -22 -61
-67 -86 -100 -56 -75 -202 -225 -220 -225 -27 0 -23 27 13 106 20 43 40 90 44
104 54 163 154 380 176 380 9 0 31 -15 49 -33z m169 -254 c17 -14 31 -33 31
-42 0 -9 8 -41 16 -71 49 -171 51 -209 12 -240 -25 -19 -39 -21 -158 -20 -172
2 -315 11 -315 20 0 4 25 32 55 61 31 30 76 85 101 123 88 134 152 195 203
196 13 0 37 -12 55 -27z"/>
<path d="M4553 5727 c4 -30 11 -66 16 -79 8 -21 10 -21 16 -4 11 26 -7 129
-24 134 -11 4 -13 -6 -8 -51z"/>
<path d="M4510 5631 c0 -22 23 -81 32 -81 16 0 8 48 -12 71 -13 16 -19 19 -20
10z"/>
<path d="M4570 5503 c0 -56 12 -95 23 -77 13 22 18 94 7 113 -19 36 -30 23
-30 -36z"/>
<path d="M4856 5531 c-18 -20 -56 -112 -56 -136 0 -29 19 -14 40 33 11 26 28
60 36 76 18 35 5 54 -20 27z"/>
<path d="M4888 5436 c-29 -45 -37 -80 -15 -74 20 7 69 87 63 103 -9 24 -19 18
-48 -29z"/>
<path d="M4776 5325 c-17 -26 -22 -65 -7 -65 13 0 52 70 46 81 -10 15 -22 10
-39 -16z"/>
<path d="M5028 5228 c-66 -38 -37 -63 31 -27 33 17 39 24 30 35 -15 18 -17 18
-61 -8z"/>
<path d="M4816 5119 c-26 -30 -32 -50 -19 -62 8 -8 72 63 73 81 0 22 -28 13
-54 -19z"/>
<path d="M5050 5120 c-8 -5 -27 -10 -42 -10 -28 0 -39 -22 -18 -35 16 -10 120
26 120 41 0 16 -38 18 -60 4z"/>
<path d="M5030 5040 c-14 -4 -47 -8 -73 -9 -34 -1 -47 -5 -45 -13 10 -31 178
-13 178 18 0 15 -21 17 -60 4z"/>
<path d="M4205 5727 c-104 -56 -144 -151 -99 -238 37 -72 370 -417 387 -400 6
6 9 45 9 88 -2 62 -11 107 -46 218 -63 197 -76 247 -76 287 0 45 -34 78 -81
78 -19 0 -60 -15 -94 -33z m144 -13 c2 -2 8 -25 12 -51 15 -86 47 -206 83
-308 27 -77 35 -116 35 -170 l0 -70 -169 173 c-172 176 -206 226 -198 283 3
22 6 19 33 -23 29 -46 45 -59 45 -38 0 17 -30 83 -45 100 -42 47 155 148 204
104z"/>
<path d="M4286 5618 c4 -13 16 -43 27 -68 16 -39 20 -42 27 -25 4 11 4 30 -1
42 -21 57 -70 102 -53 51z"/>
<path d="M4230 5570 c0 -19 40 -90 50 -90 16 0 12 19 -12 61 -21 38 -38 50
-38 29z"/>
<path d="M4340 5427 c0 -10 11 -40 25 -67 14 -27 25 -56 25 -64 0 -17 39 -66
40 -49 0 15 -69 174 -81 188 -6 5 -9 2 -9 -8z"/>
<path d="M3954 5423 c-20 -46 -34 -132 -34 -204 0 -83 17 -95 205 -147 123
-34 265 -56 295 -47 12 4 20 15 20 27 0 23 -29 54 -135 142 -38 32 -106 96
-151 141 -72 74 -143 125 -174 125 -6 0 -18 -16 -26 -37z m97 -23 c24 -16 89
-75 144 -131 79 -80 93 -98 65 -84 -19 9 -50 31 -67 48 -37 35 -44 26 -10 -15
21 -25 120 -98 133 -98 3 0 4 9 1 20 -4 15 5 11 39 -17 24 -21 44 -46 44 -56
0 -17 -5 -19 -52 -13 -133 15 -275 50 -352 87 l-49 24 6 95 c5 89 27 170 45
170 5 0 28 -13 53 -30z"/>
<path d="M4010 5359 c1 -14 48 -54 56 -47 2 3 -10 17 -26 33 -19 18 -30 24
-30 14z"/>
<path d="M4050 5266 c0 -16 105 -96 127 -96 32 0 3 32 -73 83 -46 31 -54 33
-54 13z"/>
<path d="M3970 5197 c0 -21 7 -26 103 -66 5 -2 7 7 5 20 -2 17 -17 29 -55 46
l-53 23 0 -23z"/>
<path d="M3947 5048 c-33 -12 -41 -38 -35 -118 3 -46 10 -66 29 -86 22 -23 29
-25 74 -20 51 7 107 25 229 77 40 17 87 29 112 29 44 0 64 14 46 32 -14 14
-223 65 -317 78 -44 6 -87 13 -95 15 -8 2 -27 -1 -43 -7z m218 -48 c50 -10
101 -23 115 -28 24 -9 24 -10 5 -18 -11 -4 -51 -21 -90 -37 -89 -37 -184 -67
-211 -67 -30 0 -42 18 -48 70 -13 115 13 124 229 80z"/>
<path d="M3970 4956 c0 -12 11 -16 46 -16 59 0 55 24 -4 28 -33 2 -42 0 -42
-12z"/>
<path d="M4128 4948 c-44 -16 -34 -32 14 -24 48 8 53 10 43 25 -7 13 -21 13
-57 -1z"/>
<path d="M3977 4913 c-17 -16 -5 -29 23 -25 25 3 28 7 19 18 -12 15 -31 18
-42 7z"/>
<path d="M4706 4924 c-16 -41 7 -86 83 -167 153 -161 276 -276 297 -277 58 -1
113 115 129 271 7 70 -17 113 -72 128 -55 15 -207 31 -294 31 -50 0 -82 5 -95
15 -25 19 -40 19 -48 -1z m64 -44 c13 -24 58 -55 67 -46 4 3 -4 18 -18 32
l-24 27 115 -7 c125 -7 244 -28 267 -48 32 -26 0 -216 -50 -289 -31 -47 -59
-49 -99 -5 -18 19 -50 49 -72 65 -21 17 -37 31 -35 31 3 0 -31 37 -74 83 -85
89 -117 132 -117 160 0 23 27 22 40 -3z"/>
<path d="M4903 4833 c-28 -10 -10 -33 40 -51 77 -29 92 -30 92 -8 0 13 -12 22
-40 31 -22 6 -49 16 -60 22 -11 6 -26 8 -32 6z"/>
<path d="M5116 4785 c-5 -14 20 -35 43 -35 17 0 13 21 -6 36 -23 17 -30 17
-37 -1z"/>
<path d="M5013 4714 c0 -15 67 -53 94 -54 25 0 1 27 -43 48 -53 26 -51 26 -51
6z"/>
<path d="M4974 4668 c1 -7 5 -19 9 -26 10 -15 81 -52 102 -52 27 0 16 19 -22
38 -21 10 -50 26 -65 36 -19 12 -26 14 -24 4z"/>
<path d="M4315 4878 c-157 -69 -335 -198 -335 -242 0 -7 18 -41 40 -74 30 -44
51 -64 80 -76 51 -20 84 -20 105 0 37 37 225 330 225 350 0 7 7 14 15 18 8 3
15 17 15 31 0 22 -4 25 -37 25 -21 0 -69 -15 -108 -32z m105 -2 c0 -4 -41 -80
-71 -131 -13 -22 -57 -87 -97 -143 -80 -111 -89 -116 -157 -88 -38 16 -97 98
-88 122 20 53 413 282 413 240z"/>
<path d="M4306 4797 c-20 -24 -39 -59 -42 -78 l-6 -34 39 40 c55 57 84 96 77
106 -11 19 -34 7 -68 -34z"/>
<path d="M4122 4670 c-32 -39 -43 -75 -20 -68 6 2 26 22 45 45 27 33 31 42 20
52 -11 8 -21 2 -45 -29z"/>
<path d="M4181 4620 c-19 -24 -31 -49 -29 -61 l3 -21 26 21 c32 25 56 78 42
92 -6 6 -21 -5 -42 -31z"/>
<path d="M4597 4903 c-9 -16 -27 -109 -29 -148 -1 -22 -1 -139 0 -260 3 -259
6 -268 85 -267 74 2 167 30 240 74 72 43 97 70 97 103 0 22 -102 171 -177 260
-111 132 -130 157 -143 182 -27 54 -60 79 -73 56z m48 -62 c25 -36 131 -169
157 -196 46 -49 158 -212 158 -230 0 -28 -8 -36 -67 -73 -51 -33 -128 -63
-190 -77 -32 -6 -33 -6 -27 22 7 39 -8 135 -23 140 -15 5 -13 -138 2 -149 12
-9 -21 -22 -38 -15 -25 9 -36 430 -15 543 6 35 14 64 17 64 3 0 15 -13 26 -29z"/>
<path d="M4710 4697 c0 -21 7 -49 27 -107 4 -11 8 -8 15 10 6 18 4 36 -7 67
-20 51 -35 64 -35 30z"/>
<path d="M4645 4680 c4 -6 9 -47 13 -92 4 -51 12 -83 20 -86 9 -3 12 13 12 57
0 64 -21 131 -40 131 -6 0 -8 -5 -5 -10z"/>
<path d="M4800 4567 c0 -11 77 -124 90 -132 5 -3 10 -3 10 2 0 12 -80 130 -80
118 0 -5 -5 -3 -10 5 -5 8 -10 11 -10 7z"/>
<path d="M4780 4493 c0 -20 38 -105 54 -121 17 -16 18 -16 11 8 -18 60 -65
142 -65 113z"/>
<path d="M4700 4398 c0 -33 14 -67 24 -58 8 9 -6 90 -15 90 -5 0 -9 -15 -9
-32z"/>
<path d="M4467 4828 c-13 -13 -36 -45 -51 -73 -37 -68 -69 -120 -87 -142 -24
-28 -66 -105 -88 -161 -31 -78 -19 -101 84 -162 58 -35 119 -40 133 -12 25 46
54 281 64 507 3 69 -13 82 -55 43z m38 -50 c-11 -87 -25 -230 -30 -293 -4 -64
-11 -98 -30 -162 -7 -22 -31 -37 -45 -28 -5 3 -6 30 -3 60 7 71 -14 75 -23 5
-7 -53 -16 -59 -51 -35 l-22 15 30 66 c39 86 24 110 -20 33 -17 -30 -31 -60
-31 -66 0 -18 -19 -16 -27 3 -8 23 43 136 107 233 31 47 69 109 85 136 42 73
66 86 60 33z"/>
<path d="M4439 4620 c0 -3 -7 -32 -14 -65 -13 -59 -12 -75 5 -75 13 0 31 123
20 134 -6 6 -10 8 -11 6z"/>
</g>
</svg>
